<svg id="Layer_1" xmlns="http://www.w3.org/2000/svg" viewBox="0 0 612 792"><style>.st0{stroke:#000;stroke-width:3;stroke-miterlimit:10}.st1{fill:#050303}.st2{fill:#002e44}.st4{font-family:&apos;SansSerifFLF-Italic&apos;}.st5{font-size:18.658px}.st6{letter-spacing:2}</style><g id="XMLID_3_"><path id="XMLID_4_" class="st0" d="M109.5 491.8c0-.2.2-.4.4-.4 3-.1 3.5-1.9 3.5-3.5 0-1.3-.2-2.7-.4-4-.2-1.3-.4-2.6-.4-4 0-4.4 2.8-5.2 6.9-5.2h1v2.6h-.9c-2.8 0-3.7 1.5-3.7 4.1 0 1.1.1 2.2.3 3.4.2 1.2.3 2.3.3 3.6 0 3.1-1.3 3.6-3.4 4.1v.1c2.1.5 3.5 3.2 3.4 6.2 0 1.3-.1 2.5-.3 3.6-.2 1.2-.3 2.3-.3 3.5 0 2.3 1.8 4.1 4.1 4.1h.5v2.6h-1c-3.9 0-6.9-2.7-6.9-7.5 0-1.3.2-2.6.4-3.9.2-1.3.4-2.6.4-3.9 0-1.4-.4-3.4-3.5-3.5-.2 0-.4-.2-.4-.4v-1.6z"/></g><g id="XMLID_9_"><path id="XMLID_19_" class="st0" d="M154.4 512.7h-29.2V510h30.2v1.6c0 .6-.4 1.1-1 1.1z"/><path id="XMLID_23_" class="st0" d="M155.4 477.3h-30v-2.6h29c.6 0 1 .4 1 1v1.6z"/><path id="XMLID_17_" class="st0" d="M152.8 477.3h2.6V510h-2.6z"/></g><g id="XMLID_22_"><path id="XMLID_24_" class="st0" d="M228.3 493.5c0 .2-.2.4-.4.4-3 .1-3.5 1.9-3.5 3.5 0 1.3.2 2.7.4 4 .2 1.3.4 2.6.4 4 0 4.4-2.8 7.3-6.9 7.3h-1v-2.6h.9c2.8 0 3.7-1.5 3.7-4.1 0-1.1-.1-2.2-.3-3.4-.2-1.2-.3-2.3-.3-3.6 0-3.1 1.3-5.6 3.4-6.2v-.1c-2.1-.5-3.5-1.1-3.4-4.2 0-1.3.1-2.5.3-3.6.2-1.2.3-2.3.3-3.5 0-2.3-1.8-4.1-4.1-4.1h-.5v-2.6h1c3.9 0 6.9.7 6.9 5.5 0 1.3-.2 2.6-.4 3.9-.2 1.3-.4 2.6-.4 3.9 0 1.4.4 3.4 3.5 3.5.2 0 .4.2.4.4v1.6z"/></g><g id="XMLID_26_"><path id="XMLID_20_" class="st0" d="M183.5 474.7h29.2v2.6h-30.2v-1.6c0-.6.4-1 1-1z"/><path id="XMLID_18_" class="st0" d="M182.5 510h30v2.6h-29c-.6 0-1-.4-1-1V510z"/><path id="XMLID_16_" class="st0" d="M182.5 477.3h2.6V510h-2.6z"/></g><path id="XMLID_21_" class="st0" d="M160.2 492.3h17.5v2.6h-17.5z"/><path id="XMLID_40_" d="M75.1 549.2h-4.2l-5.2-13.3H45.3l-5.1 13.3H36l19.5-50.5 19.6 50.5zM47 531.7h17.1l-8.6-22.1-8.5 22.1z"/><path id="XMLID_43_" d="M82.2 549.2v-50.7h3.9v50.7h-3.9z"/><path id="XMLID_45_" class="st1" d="M118 539l3.7 1.4c-1.4 3.9-5.1 8-11.3 9.1-8.4 1.5-15.5-3.5-17-11.9s3.5-15.5 11.9-17c9.4-1.7 15.7 4.7 16.9 11.7.2 1.3.2 1.9-.3 2l-24.2 4.3c1.5 4.6 6 8.1 12 7.1 4.6-.8 7.1-3.7 8.3-6.7zm-12-14.5c-6.8 1.2-9.3 7.1-8.9 10.5l20.7-3.7c-1-3.6-5.3-7.9-11.8-6.8z"/><path id="XMLID_48_" d="M138 532.1l7.3-11.2h4l-9.2 14.2 9.1 14h-4l-7.3-11.2-7.3 11.2h-4l9.2-14.2-9.1-14.1h4l7.3 11.3z"/><path id="XMLID_50_" d="M153.9 535.1c0-8.1 6.6-14.7 14.7-14.7 4.2 0 8.1 1.8 10.8 4.8v-4.3h3.8v28.3h-3.8V545c-2.7 2.9-6.5 4.8-10.8 4.8-8.1 0-14.7-6.6-14.7-14.7zm14.7 10.9c6 0 10.8-4.9 10.8-10.8 0-6-4.9-10.8-10.8-10.8-6 0-10.8 4.9-10.8 10.8s4.9 10.8 10.8 10.8z"/><path id="XMLID_53_" d="M193.1 520.9h3.8v4c.9-2.1 3.6-4.2 8.3-4.2 7.9 0 11.8 4.9 11.8 11.4v17.2h-3.9v-15.9c0-5.4-2.4-8.9-7.9-8.9-6 0-8.3 4.4-8.3 8.6v16.1h-3.8v-28.3z"/><path id="XMLID_58_" d="M261.3 520.9h3.8v3.1c.8-1.8 2.7-3.4 5.5-3.4s4.8.7 6.5 2.3l-1.8 2.9c-1-.8-1.9-1.4-4.5-1.4-3.2 0-5.6 2.9-5.6 5.1v19.7h-3.8v-28.3z"/><path id="XMLID_60_" d="M287.9 538c0 5.5 2.1 8.1 6.6 8.1 4.7 0 6.6-2.5 6.6-8.1v-17.1h3.8v17.7c0 7.3-4 11.2-10.5 11.2-6.4 0-10.5-3.9-10.5-11.2v-17.7h3.8V538z"/><path id="XMLID_62_" d="M354.4 545.7c9.2 0 13.6-2.8 17.6-5.8v4.7c-3.5 2.4-7.4 5.3-17.6 5.3-13.5 0-24.5-9.7-24.5-25 0-15.2 11-25.1 24.5-25.1 10 0 13.2 1.8 17.6 4.5v4.9c-5.3-3-9.1-5.1-17.6-5.1-10.3 0-20 7.8-20 20.9 0 13.2 9.6 20.7 20 20.7z"/><path id="XMLID_64_" d="M379.4 535.1c0-8.1 6.6-14.7 14.7-14.7 4.2 0 8.1 1.8 10.8 4.8v-4.3h3.8v28.3h-3.8V545c-2.7 2.9-6.5 4.8-10.8 4.8-8.1 0-14.7-6.6-14.7-14.7zm14.7 10.9c6 0 10.8-4.9 10.8-10.8 0-6-4.9-10.8-10.8-10.8-6 0-10.8 4.9-10.8 10.8s4.9 10.8 10.8 10.8z"/><path id="XMLID_69_" d="M492.6 535.1c0 8.1-6.6 14.7-14.7 14.7-4.3 0-8.2-1.8-10.9-4.9v4.3h-3.8v-50.7h3.8v26.8c2.7-3 6.6-4.9 10.9-4.9 8.1 0 14.7 6.6 14.7 14.7zM477.9 546c6 0 10.8-4.9 10.8-10.8 0-6-4.9-10.8-10.8-10.8-6 0-10.8 4.9-10.8 10.8S472 546 477.9 546z"/><g id="XMLID_27_"><g id="XMLID_114_"><path id="XMLID_115_" d="M445.3 520.3c-4.8 0-7.1 2.3-8.3 4.9-1.1-2.7-3.2-4.8-8-4.8-4 0-6 2.1-6.7 3.9v-3.4h-3.9v28.3h3.9v-18.6c0-3.2 2.1-6.4 6.7-6.4s6 3.3 6 6.4v18.6h3.8v-18.6c0-3.2 1.9-6.4 6.5-6.4 4.7 0 6.2 2.9 6.2 6.4v31c-2.7-3-6.6-4.9-10.9-4.9-8.1 0-14.7 6.6-14.7 14.7s6.6 14.7 14.7 14.7c4.3 0 8.2-1.8 10.9-4.9v4.3h3.8v-55.9c0-5.2-3.6-9.3-10-9.3zm-4.7 61.9c-6 0-10.8-4.9-10.8-10.8 0-6 4.9-10.8 10.8-10.8 6 0 10.8 4.9 10.8 10.8 0 6-4.8 10.8-10.8 10.8z"/></g></g><path id="XMLID_2_" d="M238.7 520.4c4.3 0 8.2 1.8 10.9 4.9v-26.8h3.8v50.7h-3.8v-4.3c-2.7 3-6.6 4.9-10.9 4.9-8.1 0-14.7-6.6-14.7-14.7s6.6-14.7 14.7-14.7zm10.8 14.8c0-6-4.9-10.8-10.8-10.8-6 0-10.8 4.9-10.8 10.8 0 6 4.9 10.8 10.8 10.8s10.8-4.9 10.8-10.8z"/><path id="XMLID_72_" d="M512 549.8c-8.1 0-14.7-6.6-14.7-14.7s6.6-14.7 14.7-14.7 14.7 6.6 14.7 14.7-6.6 14.7-14.7 14.7zm0-3.8c6 0 10.8-4.9 10.8-10.8 0-6-4.9-10.8-10.8-10.8-6 0-10.8 4.9-10.8 10.8S506.1 546 512 546z"/><path id="XMLID_75_" d="M541.9 524.3c-3.6 0-5.3 1.5-5.3 3.8 0 2.1 2 3.3 5.3 4.2 5.4 1.5 9.3 4 9.3 8.8 0 5.3-4.7 8.5-9.9 8.5-5.3 0-8.1-2.3-9.9-5.1l3.2-2c1.4 2 3 3.3 6.7 3.3 3.2 0 6.1-1.8 6.1-4.7 0-2.9-3-4.1-6.8-5.3-4.1-1.2-7.8-2.6-7.8-7.7 0-4.5 3.8-7.6 9.2-7.6 4.5 0 6.8 1.8 8.8 4.1l-3.1 2.3c-1.2-1.3-2.7-2.6-5.8-2.6z"/><path id="XMLID_77_" class="st1" d="M580 539l3.7 1.4c-1.4 3.9-5.1 8-11.3 9.1-8.4 1.5-15.5-3.5-17-11.9s3.5-15.5 11.9-17c9.4-1.7 15.7 4.7 16.9 11.7.2 1.3.2 1.9-.3 2l-24.2 4.3c1.5 4.6 6 8.1 12 7.1 4.5-.8 7-3.7 8.3-6.7zm-12-14.5c-6.8 1.2-9.3 7.1-8.9 10.5l20.7-3.7c-1-3.6-5.4-7.9-11.8-6.8z"/><path id="XMLID_13_" class="st2" d="M488.2 575.1l3.7 1.4c-1.4 3.9-5.1 8-11.3 9.1-8.4 1.5-15.5-3.5-17-11.9s3.5-15.5 11.9-17c9.4-1.7 15.7 4.7 16.9 11.7.2 1.3.2 1.9-.3 2l-24.2 4.3c1.5 4.6 6 8.1 12 7.1 4.6-.9 7-3.7 8.3-6.7zm-12-14.5c-6.8 1.2-9.3 7.1-8.9 10.5l20.7-3.7c-1-3.6-5.3-8-11.8-6.8z"/><g id="XMLID_30_"><g id="XMLID_109_"><path id="XMLID_110_" class="st2" d="M225.6 413.8c-.3-.3-.8-.1-.9.3-.2.9-.4 1.7-.6 2.8-.1.3-.5.4-.7.1-1.6-3.9-3.5-7.1-5.6-9.6-3.6-4.3-7.8-6.4-12.7-6.4-.4 0-.7.3-.6.7.1.6.2 1.3.3 2.2.1.4.1.9.2 1.4-6-7.2-12.7-10.9-21.5-10.8-.5 0-.9.5-.8 1l.6 2.9c.1.4-.4.7-.7.5-4.9-3.8-9.6-6.1-15.1-5.5-1.1.1-1.8 1.1-1.7 2.2.4 3.9.8 7.4 1.2 11.1 0 .2-.3.4-.4.1-2-4-4.1-8.1-6.1-12.1-.4-.8-1.2-1.3-2-1.3-7.6-.5-10.3.6-21 8-.2.1-.4 0-.3-.2.2-1.3.3-2.4.5-3.6 0-.3-.3-.6-.6-.6-10.3 2.1-15 9.7-19.5 19-.1.2-.3.1-.3-.1-.2-2.6-.4-4.4-.5-6.6 0-.2-.3-.4-.5-.2-10.2 9.1-12.5 20.3-11.7 33.7 0 .3-.4.5-.6.2-1.6-1.8-2.8-3.2-4.2-4.8-.4-.4-1.1-.3-1.3.2-1.9 4.5-4.3 8.4-4.5 12.4-.5 13-.3 26.1.4 39.2.2 3.7.4 7.3.7 11 0 .5.5.9 1 .9h4.8c.5 0 .8-.3.9-.8.8-4.9 1.6-9.4 1.9-13.8.5-6-.3-12.2.8-18 1.9-10.3 5.3-13.6 14-14.9 1-.2 1.7-1.1 1.5-2.1-.9-4.7-.6-6.8-2.4-11.8-.1-.2.2-.3.3-.1.9 2 1.6 2.6 2 3.8 1.3 3.8 1.7 8.4 5 9.9 6.3 2.8 15.3 4.4 22.8 6.1.9.2 1.8-.6 1.7-1.5-.9-12.1 0-4.5-.9-12.1 1.8 4.3 2.7 6.3 2.9 7.1 2.1 7.2 3.2 9.2 9.4 9.3 1.8 0 4.7.1 6.4.2 6.8.4 7.2-.2 7.2-7.1 0-2.6.2-2.6 0-4.8-.2-2-.1-1-.5-3.4-.2-1.4-.4-4.4-1.1-6 4.8 10.7 3.4 6 5.6 17.6.4 2.3 1.5 2.8 3.1 2.6 13.8-2.1 14.9-4.2 15.4-17.5l2.9 12.4c.2.7.8 1.3 1.5 1.4 6.4.8 14.7-4.7 19.2-22.1-.1 3.3-.2 5.6-.9 8.8-.6 2.7-1.5 5.4-2.4 8.1-.2.6.3 1.2.9 1.2 7.9-.1 12.2-4 16.4-14.2 2.8-7.2-.9-18.5-8.9-26.4zm12.4 26.7c-.4-.4-1.1-.3-1.3.2-.6 1.4-1.2 2.7-1.8 3.9-4 7.3-4.6 14-2.2 22.8 2.9 10.6 2.5 22.1 3 33.4 0 .7.6 1.2 1.2 1.2h3.5c.6 0 1.1-.5 1.2-1.1 1.1-12.4 3-24.8 4.1-37.2.8-8.5-1.1-16.5-7.7-23.2z"/></g></g><text id="XMLID_1_" transform="translate(496.37 569.604)" class="st4 st5 st6" fill="#080906">veloper</text><text id="XMLID_8_" transform="translate(496.37 583.836)" class="st4 st5 st6">signer</text></svg>