<svg width="306" height="74" viewBox="0 0 306 74" fill="none" xmlns="http://www.w3.org/2000/svg">
<g clip-path="url(#clip0_3301_14)">
<path fill-rule="evenodd" clip-rule="evenodd" d="M37.033 0.25174L16.4772 42.2532L30.0996 55.8333C31.9393 57.6664 34.4332 58.6965 37.033 58.6965V0.25174Z" fill="url(#paint0_linear_3301_14)"/>
<path fill-rule="evenodd" clip-rule="evenodd" d="M37.0559 0.251709L57.6118 42.2532L43.9893 55.8332C42.1501 57.6664 39.6562 58.6965 37.0559 58.6965V0.251709Z" fill="url(#paint1_linear_3301_14)"/>
<path fill-rule="evenodd" clip-rule="evenodd" d="M37.0558 16.6572V73.738C39.657 73.738 42.151 72.7079 43.9907 70.8752L57.164 57.7419L37.0558 16.6572Z" fill="url(#paint2_linear_3301_14)"/>
<path fill-rule="evenodd" clip-rule="evenodd" d="M37.018 16.6572V73.738C34.4163 73.738 31.9224 72.7079 30.0831 70.8752L16.9093 57.7419L37.018 16.6572Z" fill="url(#paint3_linear_3301_14)"/>
<path fill-rule="evenodd" clip-rule="evenodd" d="M62.5312 52.3745L37.022 0.25174L11.5128 52.3745L30.0877 70.892C31.9273 72.7261 34.4203 73.7562 37.0211 73.7553C39.6223 73.7553 42.1167 72.7261 43.9554 70.8925L62.5312 52.3745Z" fill="url(#paint4_linear_3301_14)"/>
<path fill-rule="evenodd" clip-rule="evenodd" d="M37.0221 0.25174L11.5129 52.3745L30.0882 70.892C31.9274 72.7261 34.4209 73.7562 37.0212 73.7553" fill="url(#paint5_linear_3301_14)"/>
<path fill-rule="evenodd" clip-rule="evenodd" d="M37.0559 73.7552C39.6576 73.7552 42.1515 72.7261 43.9902 70.8924L62.5661 52.3744L37.0568 0.251709" fill="url(#paint6_linear_3301_14)"/>
<path fill-rule="evenodd" clip-rule="evenodd" d="M37.0104 8.45438L23.6011 35.8537L31.3226 43.5509C32.8316 45.0548 34.8774 45.8998 37.0104 45.8998V8.45438Z" fill="url(#paint7_linear_3301_14)"/>
</g>
<path d="M123.184 36.0112C124.903 36.4717 126.239 37.3313 127.191 38.59C128.173 39.818 128.664 41.6447 128.664 44.07C128.664 47.2628 127.759 49.6574 125.947 51.2538C124.167 52.8502 121.281 53.6484 117.29 53.6484H92.1003V20.7686H116.553C123.86 20.7686 127.513 23.6084 127.513 29.2879C127.513 31.0378 127.129 32.45 126.362 33.5245C125.625 34.599 124.566 35.3512 123.184 35.781V36.0112ZM113.928 33.7548C115.125 33.7548 116.016 33.5092 116.599 33.018C117.182 32.5268 117.474 31.7439 117.474 30.6694C117.474 29.6256 117.182 28.8581 116.599 28.3669C116.016 27.8757 115.125 27.6301 113.928 27.6301H101.31V33.7548H113.928ZM114.527 46.833C115.97 46.833 116.998 46.5567 117.612 46.0041C118.257 45.4208 118.579 44.5305 118.579 43.3332C118.579 42.1359 118.257 41.2609 117.612 40.7083C116.998 40.125 115.97 39.8334 114.527 39.8334H101.31V46.833H114.527Z" fill="white"/>
<path d="M148.265 27.8143C153.669 27.8143 157.767 28.9809 160.561 31.3141C163.385 33.6473 164.797 36.9476 164.797 41.2149C164.797 45.4822 163.385 48.7825 160.561 51.1157C157.767 53.4489 153.669 54.6155 148.265 54.6155C142.831 54.6155 138.702 53.4489 135.878 51.1157C133.084 48.7825 131.687 45.4822 131.687 41.2149C131.687 36.9476 133.084 33.6473 135.878 31.3141C138.702 28.9809 142.831 27.8143 148.265 27.8143ZM148.265 47.9843C150.599 47.9843 152.364 47.401 153.561 46.2344C154.789 45.0371 155.403 43.3639 155.403 41.2149C155.403 39.0659 154.789 37.4081 153.561 36.2415C152.364 35.0749 150.599 34.4916 148.265 34.4916C145.932 34.4916 144.152 35.0749 142.924 36.2415C141.726 37.4081 141.128 39.0659 141.128 41.2149C141.128 43.3639 141.726 45.0371 142.924 46.2344C144.152 47.401 145.932 47.9843 148.265 47.9843Z" fill="white"/>
<path d="M177.475 28.7813V31.9128H177.751C179.163 30.6234 180.729 29.687 182.448 29.1037C184.167 28.4897 186.117 28.1827 188.297 28.1827C191.643 28.1827 194.299 28.9809 196.263 30.5773C198.259 32.143 199.257 34.4916 199.257 37.623V53.6484H190.231V40.4781C190.231 37.1011 188.343 35.4126 184.567 35.4126C182.663 35.4126 181.036 35.9345 179.685 36.9783C178.334 37.9914 177.659 39.6645 177.659 41.9977V53.6484H168.587V28.7813H177.475Z" fill="white"/>
<path d="M220.001 25.3736C218.436 25.3736 217.269 25.5578 216.502 25.9262C215.734 26.2946 215.427 27.0775 215.581 28.2748L215.627 28.7813H222.166V34.3995H215.627V53.6484H206.555V34.3995H202.364V28.7813H206.555V27.0314C206.555 24.0535 207.507 21.9813 209.41 20.8147C211.344 19.6481 214.276 19.0648 218.206 19.0648C219.341 19.0648 220.308 19.1108 221.107 19.2029C221.936 19.295 222.473 19.3411 222.718 19.3411V25.5578C222.534 25.5578 222.197 25.5271 221.705 25.4657C221.214 25.4043 220.646 25.3736 220.001 25.3736ZM234.277 53.6484H225.205V28.7813H234.277V53.6484ZM234.369 25.6039H225.113V20.1239H234.369V25.6039Z" fill="white"/>
<path d="M239.057 28.7813H247.944V32.0509H248.221C249.479 30.7001 250.984 29.7177 252.733 29.1037C254.514 28.459 256.617 28.1366 259.042 28.1366C259.656 28.1366 260.362 28.198 261.161 28.3208V37.1164C259.748 36.7787 258.367 36.6099 257.016 36.6099C254.407 36.6099 252.273 37.1318 250.615 38.1756C248.957 39.1887 248.128 41.0307 248.128 43.7016V53.6484H239.057V28.7813Z" fill="white"/>
<path d="M296.199 41.2149C296.199 42.0745 296.153 42.8267 296.061 43.4714H272.713C273.174 46.9405 275.523 48.675 279.759 48.675C281.816 48.675 283.32 48.3834 284.272 47.8001C285.224 47.2168 285.807 46.6028 286.022 45.9581H295.831C295.646 48.4141 294.326 50.471 291.87 52.1288C289.414 53.7866 285.377 54.6155 279.759 54.6155C274.356 54.6155 270.242 53.4489 267.418 51.1157C264.624 48.7825 263.227 45.4822 263.227 41.2149C263.227 36.9476 264.624 33.6473 267.418 31.3141C270.211 28.9809 274.31 27.8143 279.713 27.8143C285.116 27.8143 289.215 28.9809 292.008 31.3141C294.802 33.6473 296.199 36.9476 296.199 41.2149ZM279.713 33.8008C275.968 33.8008 273.711 35.167 272.944 37.8993H286.529C286.129 36.5178 285.362 35.4893 284.226 34.8139C283.09 34.1385 281.586 33.8008 279.713 33.8008Z" fill="white"/>
<defs>
<linearGradient id="paint0_linear_3301_14" x1="29.366" y1="1.45541" x2="88.7505" y2="61.0241" gradientUnits="userSpaceOnUse">
<stop stop-color="white" stop-opacity="0"/>
<stop offset="1" stop-color="#FF1B00"/>
</linearGradient>
<linearGradient id="paint1_linear_3301_14" x1="28.3919" y1="-2.69427" x2="62.3919" y2="70.8783" gradientUnits="userSpaceOnUse">
<stop stop-color="#FFD5BC" stop-opacity="0"/>
<stop offset="0.5" stop-color="#FFD5BC" stop-opacity="0.25"/>
<stop offset="1" stop-color="#FFD5BC"/>
</linearGradient>
<linearGradient id="paint2_linear_3301_14" x1="45.392" y1="10.3104" x2="57.5387" y2="75.3575" gradientUnits="userSpaceOnUse">
<stop stop-color="#FFD5BC" stop-opacity="0"/>
<stop offset="1" stop-color="#FF1B00" stop-opacity="0.5"/>
</linearGradient>
<linearGradient id="paint3_linear_3301_14" x1="28.6815" y1="10.3104" x2="16.5347" y2="75.3575" gradientUnits="userSpaceOnUse">
<stop stop-color="white" stop-opacity="0"/>
<stop offset="1" stop-color="#FFD5BC"/>
</linearGradient>
<linearGradient id="paint4_linear_3301_14" x1="46.4598" y1="-8.77615" x2="46.4598" y2="73.7556" gradientUnits="userSpaceOnUse">
<stop stop-color="#FFD5BC" stop-opacity="0"/>
<stop offset="0.5" stop-color="#FFD5BC" stop-opacity="0.25"/>
<stop offset="1" stop-color="#FFD5BC"/>
</linearGradient>
<linearGradient id="paint5_linear_3301_14" x1="28.4523" y1="24.9789" x2="47.7844" y2="88.8" gradientUnits="userSpaceOnUse">
<stop stop-color="#FFD5BC" stop-opacity="0"/>
<stop offset="0.5" stop-color="#FFD5BC" stop-opacity="0.25"/>
<stop offset="1" stop-color="#FFD5BC"/>
</linearGradient>
<linearGradient id="paint6_linear_3301_14" x1="51.3432" y1="21.5478" x2="43.3903" y2="78.9652" gradientUnits="userSpaceOnUse">
<stop stop-color="#FFD5BC" stop-opacity="0"/>
<stop offset="0.5" stop-color="#FFD5BC" stop-opacity="0.25"/>
<stop offset="1" stop-color="#FFD5BC"/>
</linearGradient>
<linearGradient id="paint7_linear_3301_14" x1="31.2036" y1="23.2117" x2="41.4447" y2="39.0302" gradientUnits="userSpaceOnUse">
<stop stop-color="white" stop-opacity="0.4"/>
<stop offset="0.5" stop-color="white" stop-opacity="0.3"/>
<stop offset="1" stop-color="white" stop-opacity="0"/>
</linearGradient>
<clipPath id="clip0_3301_14">
<rect width="73.6803" height="73.6803" fill="white"/>
</clipPath>
</defs>
</svg>
