<svg width="45" height="50" viewBox="0 0 45 50" fill="none" xmlns="http://www.w3.org/2000/svg">
<path d="M20.6897 41.3793C32.1162 41.3793 41.3793 32.1162 41.3793 20.6897C41.3793 9.26308 32.1162 0 20.6897 0C9.26307 0 0 9.26308 0 20.6897C0 32.1162 9.26307 41.3793 20.6897 41.3793Z" fill="#141414"/>
<path fill-rule="evenodd" clip-rule="evenodd" d="M42.8838 19.8749C43.0067 20.7852 43.0713 21.7143 43.0713 22.6588C43.0713 33.948 34.0191 43.1033 22.8569 43.1033C22.1246 43.1033 21.4019 43.0629 20.6897 42.9861L42.8838 19.8749ZM39.5597 19.3228C38.3012 17.6617 38.3572 15.7999 37.6462 13.793H44.8276L39.5597 19.3228Z" fill="#141414"/>
<path fill-rule="evenodd" clip-rule="evenodd" d="M22.271 1.72412H41.3795L28.6156 18.091H40.0839L8.62085 50L18.6154 26.9248H11.3558L22.271 1.72412Z" fill="#141414"/>
<path fill-rule="evenodd" clip-rule="evenodd" d="M8.78202 37.5861C3.47049 33.8183 0 27.5985 0 20.5647C0 10.1701 7.57818 1.55325 17.4778 0L5.47127 28.3124H12.7149L8.78202 37.5861ZM41.1874 17.7304C41.3132 18.6572 41.3793 19.6031 41.3793 20.5647C41.3793 32.0583 32.1143 41.3793 20.6897 41.3793C19.9402 41.3793 19.2005 41.3381 18.4716 41.2599L41.1874 17.7304ZM37.121 7.91844C38.4092 9.60963 39.4448 11.5052 40.1725 13.5484H32.8222L37.121 7.91844Z" fill="#678FE6"/>
<path fill-rule="evenodd" clip-rule="evenodd" d="M20.5469 0H39.6554L26.8915 16.3668H38.3597L6.89673 48.2759L16.8913 25.2007H9.6317L20.5469 0Z" fill="#FFBB00"/>
<path fill-rule="evenodd" clip-rule="evenodd" d="M20.6486 0H29.3105L16.1792 21.1424H23.6608L6.89673 48.2759L16.9658 25.2007H9.65208L20.6486 0Z" fill="#FFED00"/>
</svg>
