<svg width="339" height="50" viewBox="0 0 339 50" fill="none" xmlns="http://www.w3.org/2000/svg">
<path d="M20.6897 41.3793C32.1162 41.3793 41.3793 32.1162 41.3793 20.6897C41.3793 9.26308 32.1162 0 20.6897 0C9.26307 0 0 9.26308 0 20.6897C0 32.1162 9.26307 41.3793 20.6897 41.3793Z" fill="#141414"/>
<path fill-rule="evenodd" clip-rule="evenodd" d="M42.8838 19.8749C43.0067 20.7852 43.0713 21.7143 43.0713 22.6588C43.0713 33.948 34.0191 43.1033 22.8569 43.1033C22.1246 43.1033 21.4019 43.0629 20.6897 42.9861L42.8838 19.8749ZM39.5597 19.3228C38.3012 17.6617 38.3572 15.7999 37.6462 13.793H44.8276L39.5597 19.3228Z" fill="#141414"/>
<path fill-rule="evenodd" clip-rule="evenodd" d="M22.271 1.72412H41.3795L28.6156 18.091H40.0839L8.62085 50L18.6154 26.9248H11.3558L22.271 1.72412Z" fill="#141414"/>
<path fill-rule="evenodd" clip-rule="evenodd" d="M8.78202 37.5861C3.47049 33.8183 0 27.5985 0 20.5647C0 10.1701 7.57818 1.55325 17.4778 0L5.47127 28.3124H12.7149L8.78202 37.5861ZM41.1874 17.7304C41.3132 18.6572 41.3793 19.6031 41.3793 20.5647C41.3793 32.0583 32.1143 41.3793 20.6897 41.3793C19.9402 41.3793 19.2005 41.3381 18.4716 41.2599L41.1874 17.7304ZM37.121 7.91844C38.4092 9.60963 39.4448 11.5052 40.1725 13.5484H32.8222L37.121 7.91844Z" fill="#678FE6"/>
<path fill-rule="evenodd" clip-rule="evenodd" d="M20.5469 0H39.6554L26.8915 16.3668H38.3597L6.89673 48.2759L16.8913 25.2007H9.6317L20.5469 0Z" fill="#FFBB00"/>
<path fill-rule="evenodd" clip-rule="evenodd" d="M20.6486 0H29.3105L16.1792 21.1424H23.6608L6.89673 48.2759L16.9658 25.2007H9.65208L20.6486 0Z" fill="#FFED00"/>
<path d="M73.1931 7.93102H80.5897V34.4827H73.1931V7.93102Z" fill="white"/>
<path d="M85.0332 13.9621H92.2401V16.8448C92.5689 16.4149 92.9355 15.9977 93.3401 15.5931C93.7447 15.1885 94.1999 14.8345 94.7056 14.531C95.2114 14.2276 95.7677 13.9873 96.3746 13.8103C96.9815 13.608 97.6516 13.5069 98.385 13.5069C100.585 13.5069 102.292 14.177 103.506 15.5172C104.745 16.8575 105.364 18.7034 105.364 21.0552V34.4827H98.1574V23.369C98.1574 22.231 97.8918 21.3713 97.3608 20.7896C96.8298 20.208 96.1344 19.9172 95.2746 19.9172C94.3895 19.9172 93.6562 20.208 93.0746 20.7896C92.5183 21.3713 92.2401 22.231 92.2401 23.369V34.4827H85.0332V13.9621Z" fill="white"/>
<path d="M117.229 34.9379C115.484 34.9379 113.79 34.6977 112.146 34.2172C110.502 33.7115 108.96 32.9402 107.518 31.9034L110.211 27.5414C111.4 28.3253 112.601 28.9195 113.815 29.3241C115.054 29.7034 116.205 29.8931 117.267 29.8931C118.48 29.8931 119.087 29.5264 119.087 28.7931V28.7172C119.087 28.3126 118.809 27.9965 118.253 27.769C117.696 27.5414 116.875 27.2759 115.787 26.9724C114.776 26.7195 113.828 26.4287 112.942 26.1C112.057 25.746 111.286 25.3287 110.629 24.8483C109.971 24.3425 109.453 23.7356 109.074 23.0276C108.694 22.3195 108.505 21.4471 108.505 20.4103V20.3345C108.505 19.2471 108.707 18.2862 109.111 17.4517C109.541 16.5919 110.123 15.8839 110.856 15.3276C111.59 14.746 112.449 14.3034 113.436 14C114.447 13.6965 115.547 13.5448 116.736 13.5448C118.253 13.5448 119.745 13.7598 121.211 14.1896C122.678 14.5942 124.006 15.1758 125.194 15.9345L122.729 20.4862C121.667 19.9046 120.592 19.4494 119.505 19.1207C118.417 18.7667 117.469 18.5896 116.66 18.5896C116.103 18.5896 115.686 18.6908 115.408 18.8931C115.13 19.0701 114.991 19.2977 114.991 19.5759V19.6517C114.991 20.0563 115.269 20.385 115.825 20.6379C116.407 20.8655 117.241 21.1437 118.329 21.4724C119.34 21.7506 120.288 22.0667 121.173 22.4207C122.059 22.7494 122.83 23.1667 123.487 23.6724C124.145 24.1529 124.663 24.7471 125.042 25.4552C125.422 26.1632 125.611 27.0103 125.611 27.9965V28.0724C125.611 29.2103 125.409 30.2092 125.005 31.069C124.6 31.9034 124.031 32.6115 123.298 33.1931C122.564 33.7747 121.679 34.2046 120.642 34.4827C119.606 34.7862 118.468 34.9379 117.229 34.9379Z" fill="white"/>
<path d="M136.713 34.9C134.538 34.9 132.844 34.3816 131.63 33.3448C130.416 32.308 129.809 30.5632 129.809 28.1103V19.7655H127.382V13.9621H129.809V8.7655H137.016V13.9621H141.796V19.7655H137.016V26.7069C137.016 27.4402 137.181 27.9713 137.509 28.3C137.838 28.6034 138.331 28.7552 138.989 28.7552C139.469 28.7552 139.937 28.6919 140.392 28.5655C140.847 28.4391 141.29 28.2747 141.72 28.0724V33.7241C141.062 34.0782 140.316 34.3563 139.482 34.5586C138.647 34.7862 137.724 34.9 136.713 34.9Z" fill="white"/>
<path d="M153.352 30.4241C154.414 30.4241 155.274 30.1207 155.931 29.5138C156.589 28.9069 156.917 28.085 156.917 27.0483V26.1C156.563 25.9483 156.133 25.8218 155.628 25.7207C155.147 25.6195 154.641 25.569 154.11 25.569C153.048 25.569 152.226 25.8092 151.645 26.2896C151.089 26.7448 150.81 27.3517 150.81 28.1103V28.1862C150.81 28.8942 151.051 29.4506 151.531 29.8552C152.012 30.2345 152.618 30.4241 153.352 30.4241ZM150.772 34.9379C149.786 34.9379 148.876 34.7988 148.041 34.5207C147.207 34.2425 146.474 33.8379 145.841 33.3069C145.235 32.7759 144.754 32.1184 144.4 31.3345C144.046 30.5506 143.869 29.6402 143.869 28.6034V28.5276C143.869 27.4655 144.059 26.5299 144.438 25.7207C144.843 24.9115 145.386 24.2414 146.069 23.7103C146.777 23.1793 147.624 22.7747 148.61 22.4965C149.597 22.2184 150.697 22.0793 151.91 22.0793C152.871 22.0793 153.782 22.1678 154.641 22.3448C155.526 22.4965 156.26 22.6736 156.841 22.8759V22.5345C156.841 21.4724 156.5 20.6506 155.817 20.069C155.16 19.4873 154.136 19.1965 152.745 19.1965C151.658 19.1965 150.671 19.2977 149.786 19.5C148.901 19.7023 148.003 19.9804 147.093 20.3345L145.614 15.2517C146.777 14.7713 148.003 14.3919 149.293 14.1138C150.608 13.8103 152.151 13.6586 153.921 13.6586C155.767 13.6586 157.322 13.8736 158.586 14.3034C159.876 14.7333 160.925 15.3529 161.735 16.1621C162.518 16.9207 163.075 17.8437 163.403 18.931C163.758 19.9931 163.935 21.2448 163.935 22.6862V34.4827H156.803V32.3586C156.095 33.1425 155.248 33.7747 154.262 34.2552C153.301 34.7103 152.138 34.9379 150.772 34.9379Z" fill="white"/>
<path d="M167.6 13.9621H174.807V16.8448C175.136 16.4149 175.502 15.9977 175.907 15.5931C176.311 15.1885 176.767 14.8345 177.272 14.531C177.778 14.2276 178.334 13.9873 178.941 13.8103C179.548 13.608 180.218 13.5069 180.952 13.5069C183.152 13.5069 184.859 14.177 186.072 15.5172C187.311 16.8575 187.931 18.7034 187.931 21.0552V34.4827H180.724V23.369C180.724 22.231 180.459 21.3713 179.927 20.7896C179.396 20.208 178.701 19.9172 177.841 19.9172C176.956 19.9172 176.223 20.208 175.641 20.7896C175.085 21.3713 174.807 22.231 174.807 23.369V34.4827H167.6V13.9621Z" fill="white"/>
<path d="M199.795 34.9C197.621 34.9 195.926 34.3816 194.713 33.3448C193.499 32.308 192.892 30.5632 192.892 28.1103V19.7655H190.464V13.9621H192.892V8.7655H200.099V13.9621H204.878V19.7655H200.099V26.7069C200.099 27.4402 200.263 27.9713 200.592 28.3C200.921 28.6034 201.414 28.7552 202.071 28.7552C202.552 28.7552 203.019 28.6919 203.475 28.5655C203.93 28.4391 204.372 28.2747 204.802 28.0724V33.7241C204.145 34.0782 203.399 34.3563 202.564 34.5586C201.73 34.7862 200.807 34.9 199.795 34.9Z" fill="white"/>
<path d="M221.821 28.3759C222.832 28.3759 223.755 28.1862 224.589 27.8069C225.424 27.4276 226.132 26.9218 226.714 26.2896C227.295 25.6322 227.75 24.8736 228.079 24.0138C228.408 23.154 228.572 22.2437 228.572 21.2827V21.2069C228.572 20.246 228.408 19.3356 228.079 18.4759C227.75 17.6161 227.283 16.8575 226.676 16.2C226.069 15.5425 225.348 15.0241 224.514 14.6448C223.679 14.2402 222.756 14.0379 221.745 14.0379C220.733 14.0379 219.81 14.2276 218.976 14.6069C218.166 14.9862 217.458 15.5046 216.852 16.1621C216.27 16.7942 215.815 17.5402 215.486 18.4C215.183 19.2598 215.031 20.1701 215.031 21.131V21.2069C215.031 22.1678 215.195 23.0782 215.524 23.9379C215.853 24.7977 216.308 25.5563 216.889 26.2138C217.496 26.8713 218.217 27.4023 219.052 27.8069C219.886 28.1862 220.809 28.3759 221.821 28.3759ZM221.745 35.0138C219.696 35.0138 217.8 34.6598 216.055 33.9517C214.31 33.2184 212.806 32.2322 211.541 30.9931C210.277 29.754 209.278 28.3 208.545 26.631C207.837 24.9621 207.483 23.1793 207.483 21.2827V21.2069C207.483 19.3103 207.837 17.5276 208.545 15.8586C209.278 14.1644 210.289 12.6977 211.579 11.4586C212.869 10.1942 214.386 9.20803 216.131 8.49999C217.876 7.76665 219.772 7.39999 221.821 7.39999C223.869 7.39999 225.765 7.76665 227.51 8.49999C229.255 9.20803 230.76 10.1816 232.024 11.4207C233.288 12.6598 234.275 14.1138 234.983 15.7827C235.716 17.4517 236.083 19.2345 236.083 21.131V21.2069C236.083 23.1034 235.716 24.8988 234.983 26.5931C234.275 28.2621 233.276 29.7287 231.986 30.9931C230.696 32.2322 229.179 33.2184 227.434 33.9517C225.689 34.6598 223.793 35.0138 221.745 35.0138Z" fill="white"/>
<path d="M250.726 28.9069C251.915 28.9069 252.913 28.477 253.723 27.6172C254.532 26.7575 254.936 25.6322 254.936 24.2414V24.1655C254.936 22.8 254.532 21.6873 253.723 20.8276C252.913 19.9678 251.915 19.5379 250.726 19.5379C250.144 19.5379 249.601 19.6517 249.095 19.8793C248.589 20.1069 248.147 20.4356 247.767 20.8655C247.388 21.2701 247.085 21.7506 246.857 22.3069C246.655 22.8632 246.554 23.4827 246.554 24.1655V24.2414C246.554 24.9241 246.655 25.5563 246.857 26.1379C247.085 26.6942 247.388 27.1873 247.767 27.6172C248.147 28.0218 248.589 28.3379 249.095 28.5655C249.601 28.7931 250.144 28.9069 250.726 28.9069ZM239.498 13.9621H246.705V16.6931C247.059 16.2632 247.439 15.8586 247.843 15.4793C248.248 15.1 248.69 14.7713 249.171 14.4931C249.677 14.1896 250.233 13.9494 250.84 13.7724C251.472 13.5954 252.167 13.5069 252.926 13.5069C254.14 13.5069 255.29 13.7598 256.378 14.2655C257.49 14.746 258.464 15.4414 259.298 16.3517C260.133 17.2621 260.79 18.3747 261.271 19.6896C261.777 21.0046 262.029 22.4839 262.029 24.1276V24.2034C262.029 25.8724 261.777 27.377 261.271 28.7172C260.79 30.0322 260.133 31.1575 259.298 32.0931C258.489 33.0034 257.528 33.7115 256.416 34.2172C255.328 34.6977 254.178 34.9379 252.964 34.9379C252.18 34.9379 251.472 34.8494 250.84 34.6724C250.233 34.5207 249.677 34.3184 249.171 34.0655C248.665 33.7873 248.21 33.4713 247.805 33.1172C247.401 32.7379 247.034 32.3586 246.705 31.9793V40.5517H239.498V13.9621Z" fill="white"/>
<path d="M273.287 34.9C271.112 34.9 269.418 34.3816 268.204 33.3448C266.99 32.308 266.383 30.5632 266.383 28.1103V19.7655H263.956V13.9621H266.383V8.7655H273.59V13.9621H278.369V19.7655H273.59V26.7069C273.59 27.4402 273.755 27.9713 274.083 28.3C274.412 28.6034 274.905 28.7552 275.563 28.7552C276.043 28.7552 276.511 28.6919 276.966 28.5655C277.421 28.4391 277.864 28.2747 278.294 28.0724V33.7241C277.636 34.0782 276.89 34.3563 276.056 34.5586C275.221 34.7862 274.298 34.9 273.287 34.9Z" fill="white"/>
<path d="M281.619 13.9621H288.826V34.4827H281.619V13.9621ZM281.467 6.79309H288.977V12.1034H281.467V6.79309Z" fill="white"/>
<path d="M303.384 28.869C304.041 28.869 304.636 28.7552 305.167 28.5276C305.698 28.2747 306.14 27.946 306.494 27.5414C306.873 27.1115 307.164 26.6184 307.367 26.0621C307.569 25.5057 307.67 24.9241 307.67 24.3172V24.2414C307.67 23.6092 307.556 23.0149 307.329 22.4586C307.126 21.9023 306.823 21.4218 306.418 21.0172C306.039 20.5873 305.584 20.246 305.053 19.9931C304.522 19.7402 303.94 19.6138 303.308 19.6138C302.65 19.6138 302.056 19.7402 301.525 19.9931C300.994 20.2207 300.539 20.5494 300.16 20.9793C299.806 21.3839 299.527 21.8644 299.325 22.4207C299.123 22.977 299.022 23.5586 299.022 24.1655V24.2414C299.022 24.8736 299.123 25.4678 299.325 26.0241C299.553 26.5804 299.856 27.0736 300.236 27.5034C300.64 27.908 301.108 28.2368 301.639 28.4896C302.17 28.7425 302.752 28.869 303.384 28.869ZM303.308 34.9759C301.664 34.9759 300.147 34.6977 298.756 34.1414C297.391 33.585 296.202 32.8264 295.191 31.8655C294.179 30.8793 293.395 29.7414 292.839 28.4517C292.283 27.1621 292.004 25.7839 292.004 24.3172V24.2414C292.004 22.7747 292.283 21.3965 292.839 20.1069C293.421 18.7919 294.217 17.654 295.229 16.6931C296.24 15.7069 297.441 14.9356 298.832 14.3793C300.223 13.7977 301.74 13.5069 303.384 13.5069C305.027 13.5069 306.532 13.7977 307.898 14.3793C309.288 14.9356 310.49 15.6942 311.501 16.6552C312.513 17.6161 313.296 18.7414 313.853 20.031C314.409 21.3207 314.687 22.6988 314.687 24.1655V24.2414C314.687 25.708 314.396 27.0988 313.815 28.4138C313.259 29.7034 312.475 30.8414 311.463 31.8276C310.452 32.7885 309.25 33.5598 307.86 34.1414C306.469 34.6977 304.952 34.9759 303.308 34.9759Z" fill="white"/>
<path d="M317.731 13.9621H324.938V16.8448C325.267 16.4149 325.634 15.9977 326.038 15.5931C326.443 15.1885 326.898 14.8345 327.404 14.531C327.909 14.2276 328.466 13.9873 329.073 13.8103C329.679 13.608 330.35 13.5069 331.083 13.5069C333.283 13.5069 334.99 14.177 336.204 15.5172C337.443 16.8575 338.062 18.7034 338.062 21.0552V34.4827H330.855V23.369C330.855 22.231 330.59 21.3713 330.059 20.7896C329.528 20.208 328.832 19.9172 327.973 19.9172C327.088 19.9172 326.354 20.208 325.773 20.7896C325.216 21.3713 324.938 22.231 324.938 23.369V34.4827H317.731V13.9621Z" fill="white"/>
</svg>
