<svg width="126" height="36" viewBox="0 0 126 36" fill="none" xmlns="http://www.w3.org/2000/svg"><circle cx="18" cy="18" r="18" fill="#0037FF"></circle><path d="M10.596 17.66h5.602l7.826 9.354h-5.602l-7.826-9.354Z" fill="#fff"></path><path fill-rule="evenodd" clip-rule="evenodd" d="M21.22 21.71c2.525-.84 4.352-3.295 4.352-6.193 0-3.591-2.805-6.503-6.265-6.503h-8.253l3.496 4.365h4.757c1.137 0 2.06.957 2.06 2.138 0 1.18-.923 2.137-2.06 2.137h-1.334l3.248 4.056Z" fill="#fff"></path><path d="M58.754 29.011h4.599l-5.23-8.127c2.584-1.102 4.127-3.433 4.127-6.646 0-4.568-3.15-7.592-7.907-7.592H46.5v22.365h4.316v-7.402h3.338l4.6 7.402ZM50.816 17.86v-7.245h3.087c2.362 0 3.968 1.04 3.968 3.623 0 2.614-1.606 3.622-3.968 3.622h-3.087ZM72.34 29.326c4.252 0 8.63-2.961 8.63-8.505 0-5.544-4.378-8.505-8.63-8.505-4.285 0-8.632 2.961-8.632 8.505 0 5.544 4.347 8.505 8.631 8.505Zm-4.474-8.505c0-2.93 2.11-4.694 4.473-4.694s4.442 1.765 4.442 4.694c0 2.93-2.08 4.694-4.442 4.694s-4.473-1.765-4.473-4.694ZM83.529 29.011h4.221V6.646h-4.221v22.365ZM91.029 29.011h4.221V6.646h-4.221v22.365ZM105.956 29.326c2.929 0 4.819-1.607 5.229-2.52h.094v2.205h4.221v-16.38h-4.221v2.205h-.094c-.41-.914-2.3-2.52-5.229-2.52-3.812 0-7.876 2.835-7.876 8.505 0 5.67 4.064 8.505 7.876 8.505Zm-3.717-8.505c0-3.056 2.204-4.725 4.567-4.725 2.362 0 4.568 1.638 4.568 4.725 0 3.087-2.206 4.725-4.568 4.725-2.363 0-4.567-1.67-4.567-4.725Z" fill="#000"></path></svg>
