<?xml version="1.0" encoding="utf-8"?>
<!-- Generator: Adobe Illustrator 19.0.0, SVG Export Plug-In . SVG Version: 6.00 Build 0)  -->
<svg version="1.1" id="Layer_1" xmlns="http://www.w3.org/2000/svg" xmlns:xlink="http://www.w3.org/1999/xlink" x="0px" y="0px"
	 viewBox="-779.8 373.6 543.9 47.4" style="enable-background:new -779.8 373.6 543.9 47.4;" xml:space="preserve">
<path id="XMLID_95_" d="M-643.2,422.4c-12-0.3-21.3-6.3-25-16.4c-5.7-15.7,4.9-32.1,21.5-33.4c5-0.4,10-0.2,14.7,1.8
	c11,4.6,15.9,13.8,15.5,23.8c-0.4,11.5-7.7,20.2-18.7,23C-637.7,421.9-640.4,422-643.2,422.4z M-656,397.6c0,7.9,5.2,13.4,12.9,13.4
	c7.7,0,13.1-5.7,13.1-13.7s-5.5-13.6-13.2-13.6S-656,389.3-656,397.6z"/>
<path id="XMLID_92_" d="M-578.8,422.4c-12.5,0.2-22.4-7.5-25.4-16.8c-5.3-16.1,5.7-32.1,22.5-33c8-0.4,15.4,1.1,21.5,6.7
	c7.3,6.7,9.4,15.2,7,24.6c-2.4,9.3-8.8,14.8-17.9,17.4C-573.6,421.9-576.2,422-578.8,422.4z M-579.1,411c7.8,0,13.2-5.6,13.2-13.6
	s-5.5-13.7-13.1-13.7c-7.4,0-12.9,5.7-13.1,13.4C-592.3,405-586.7,410.9-579.1,411z"/>
<path id="XMLID_91_" d="M-419.2,391.2c6.6,0,12.4,0,18.7,0c0-6,0-11.8,0-17.6c4.7,0,8.9,0,13.3,0c0,15.8,0,31.5,0,47.5
	c-4.4,0-8.7,0-13.3,0c0-6.1,0-12,0-18.2c-6.3,0-12.2,0-18.5,0c0,6,0,11.9,0,18.2c-4.6,0-8.9,0-13.4,0c0-15.7,0-31.4,0-47.3
	c4.2,0,8.4,0,13.1,0C-419.2,379.3-419.2,385.1-419.2,391.2z"/>
<path id="XMLID_41_" d="M-702.3,398.1c4.4-0.1,6.8-1.8,7.6-5.3c0.9-4.2-1-7.4-5.2-8.4c-1.4-0.4-3-0.5-4.4-0.5
	c-6.4-0.1-12.7,0-19.4,0c0-3.4,0-6.7,0-10.5c4.6,0,9.4-0.1,14.1,0c5,0.1,10.1-0.2,14.9,0.9c15.6,3.5,17,19.5,10.2,27.6
	c-1.5,1.7-3.5,2.9-5.5,4.7c3.2,4.6,6.3,9.3,9.8,14.4c-4.9,0-9.4,0-14.4,0c-2.8-4.1-5.6-8.2-8.5-12.3c-2.5,0-4.8,0-7.4,0
	c0,4.1,0,8.1,0,12.3c-4.6,0-8.9,0-13.4,0c0-7.4,0-15.1,0-22.8"/>
<path id="XMLID_89_" d="M-453.1,405.8c2.6,2.4,5.3,4.8,8.1,7.3c-2,3.2-4.8,5.2-8,6.5c-7.8,3.4-15.8,3.5-23.7,0.4
	c-8.9-3.5-16-12.3-14.9-25.5c0.8-9.7,7.9-18.7,18-21.1c10.7-2.5,20.6-1.2,28.7,7.8c-2.8,2.6-5.5,5.1-8.4,7.8
	c-3.8-4.3-8.5-6.5-14-5.2c-2.6,0.6-5.5,2-7.4,4c-4.8,4.9-4.5,14.3,0,19.2C-469.6,412.6-461.7,412.2-453.1,405.8z"/>
<path id="XMLID_88_" d="M-355.9,373.5c4.6,0,8.8,0,13.4,0c7,15.7,14,31.5,21.1,47.6c-4.8,0-9.2,0-14,0c-4.5-11.1-9-22.3-13.9-34.5
	c-4.9,12-9.4,23.2-13.9,34.5c-4.5,0-8.8,0-13.7,0C-369.9,405.2-363,389.4-355.9,373.5z"/>
<path id="XMLID_40_" d="M-779.7,373.4c1.9,0,3.8,0,5.6,0c7.6,0.2,15.3-0.4,22.7,0.9c12.8,2.1,16.7,12.9,13.6,22.9
	c-2.1,6.5-8.9,11-17,11.3c-3.7,0.2-7.4,0-11.5,0c0,4.4,0,8.4,0,12.5c-4.7,0-9,0-13.5,0c0-7.6,0-15.1,0-22.9c3.7,0,7.1,0,10.6,0
	c3.7,0,7.5,0.1,11.2,0c4.7-0.2,7.4-2.7,7.6-6.6c0.2-4.1-2.1-6.9-6.8-7.4c-3.7-0.4-7.5-0.2-11.2-0.2c-3.5,0-7.8-0.1-11.3-0.1"/>
<path id="XMLID_267_" d="M-282,373.6c3.6,0,7.5,0,11.6,0c10.7,13.3,23.7,29.3,34.5,43c0,4.4,0,0,0,4.4c-4.4,0-8,0-11.8,0
	c-7.7-9.3-26.4-31.8-34.3-41.3"/>
<path id="XMLID_85_" d="M-311.1,373.5c4.3,0,8.4,0,12.9,0c0,15.8,0,31.6,0,47.6c-4.2,0-8.4,0-12.9,0
	C-311.1,405.3-311.1,389.6-311.1,373.5z"/>
<path id="XMLID_84_" d="M-525.6,404.6c0,5.9,0,11.1,0,16.5c-4.5,0-8.7,0-13.1,0c0-8.7,0-17.4,0-26.4c11.7,0,23.5,0,35.5,0
	c0,3.2,0,6.3,0,9.9C-510.4,404.6-517.7,404.6-525.6,404.6z"/>
<path id="XMLID_83_" d="M-503.2,383.6c-11.8,0-23.5,0-35.5,0c0-3.2,0-6.4,0-9.9c11.7,0,23.4,0,35.5,0
	C-503.2,376.8-503.2,380-503.2,383.6z"/>
<path id="XMLID_82_" d="M-236.7,397.5c-4.6-5.5-8.6-10.3-12.6-15.2c0-2.9,0-5.8,0-8.8c4.3,0,8.3,0,12.6,0
	C-236.7,381.4-236.7,389-236.7,397.5z"/>
<path id="XMLID_111_" d="M-269,413c0,2.6,0,5.2,0,8c-4.3,0-8.4,0-12.8,0c0-7.8,0-16.5,0-24.2"/>
</svg>
