<svg xmlns="http://www.w3.org/2000/svg" width="1920" height="176.945" viewBox="0 0 1920 176.945"><defs><style>.a{opacity:0.05;}</style></defs><g class="a" transform="translate(779.8 -372.279)"><path d="M-576.014,548.825c-42.361-1.059-75.19-22.239-88.252-57.893-20.121-55.422,17.3-113.315,75.9-117.9,17.65-1.412,35.3-.706,51.892,6.354,38.831,16.238,56.128,48.715,54.716,84.015-1.412,40.6-27.182,71.307-66.012,81.191C-556.6,547.06-566.13,547.413-576.014,548.825ZM-621.2,461.28c0,27.887,18.356,47.3,45.538,47.3s46.244-20.121,46.244-48.362-19.415-48.009-46.6-48.009S-621.2,431.98-621.2,461.28Z" transform="translate(278.421 0.385)"/><path d="M-511.142,548.551c-44.126.706-79.074-26.476-89.664-59.305-18.709-56.834,20.121-113.315,79.426-116.492,28.24-1.412,54.363,3.883,75.9,23.651,25.769,23.651,33.183,53.657,24.711,86.84-8.472,32.829-31.065,52.245-63.188,61.423C-492.786,546.786-501.964,547.139-511.142,548.551Zm-1.059-40.243c27.534,0,46.6-19.768,46.6-48.009s-19.415-48.362-46.244-48.362c-26.123,0-45.538,20.121-46.244,47.3C-558.8,487.128-539.03,507.955-512.2,508.308Z" transform="translate(440.885 0.659)"/><path d="M-385.8,435.729h66.012V373.6h46.95V541.278h-46.95V477.031H-385.1v64.247h-47.3V374.306h46.244C-385.8,393.721-385.8,414.2-385.8,435.729Z" transform="translate(878.943 3.343)"/><path d="M-647.651,460.705c15.532-.353,24-6.354,26.828-18.709,3.177-14.826-3.53-26.122-18.356-29.652a58.317,58.317,0,0,0-15.532-1.765c-22.592-.353-44.832,0-68.483,0V373.513c16.238,0,33.183-.353,49.774,0,17.65.353,35.654-.706,52.6,3.177,55.069,12.355,60.011,68.836,36.007,97.43-5.3,6-12.355,10.237-19.415,16.591,11.3,16.238,22.239,32.83,34.595,50.833h-50.833c-9.884-14.473-19.768-28.946-30.005-43.42H-676.6v43.42h-47.3V461.058" transform="translate(141.43 2.725)"/><path d="M-355.408,490.611c9.178,8.472,18.709,16.944,28.593,25.769-7.06,11.3-16.944,18.356-28.24,22.945-27.535,12-55.775,12.355-83.662,1.412-31.418-12.355-56.481-43.42-52.6-90.016,2.824-34.242,27.887-66.012,63.541-74.484C-390,367.412-355.055,372-326.461,403.771c-9.884,9.178-19.415,18-29.652,27.534-13.414-15.179-30.006-22.945-49.421-18.356-9.178,2.118-19.415,7.06-26.123,14.12-16.944,17.3-15.885,50.48,0,67.777C-413.654,514.615-385.766,513.2-355.408,490.611Z" transform="translate(728.879 0)"/><path d="M-302.769,373.5h47.3c24.71,55.422,49.421,111.2,74.484,168.031H-230.4c-15.885-39.184-31.771-78.72-49.068-121.787-17.3,42.361-33.183,81.9-49.068,121.787H-376.9C-352.19,485.4-327.832,429.628-302.769,373.5Z" transform="translate(1019.361 3.09)"/><path d="M-779.447,373.4h19.768c26.828.706,54.01-1.412,80.133,3.177,45.185,7.413,58.952,45.538,48.008,80.838-7.413,22.945-31.418,38.831-60.011,39.89-13.061.706-26.123,0-40.6,0v44.126H-779.8V460.592h37.418c13.061,0,26.476.353,39.537,0,16.591-.706,26.123-9.531,26.828-23.3.706-14.473-7.413-24.357-24-26.122-13.061-1.412-26.475-.706-39.537-.706-12.355,0-27.534-.353-39.89-.353" transform="translate(0 2.837)"/><path d="M-282,373.6h40.949c37.772,46.95,83.662,103.431,121.787,151.793v15.532h-41.655C-188.1,508.1-254.113,428.669-282,395.134" transform="translate(1259.464 3.343)"/><path d="M-311.1,373.5h45.538V541.531H-311.1Z" transform="translate(1185.839 3.09)"/><path d="M-492.456,429.648v58.246H-538.7V394.7h125.317v34.948Z" transform="translate(609.998 56.727)"/><path d="M-413.383,408.648H-538.7V373.7h125.317Z" transform="translate(609.998 3.596)"/><path d="M-204.821,458.222c-16.238-19.415-30.358-36.36-44.479-53.657V373.5h44.479Z" transform="translate(1342.197 3.09)"/><path d="M-236.615,453.987v28.241H-281.8V396.8" transform="translate(1259.97 62.04)"/></g></svg>