<svg xmlns="http://www.w3.org/2000/svg" xmlns:xlink="http://www.w3.org/1999/xlink" width="77.23" height="136.441" viewBox="0 0 77.23 136.441"><defs><style>.a{fill:url(#a);}.b{fill:none;}.c,.d{fill:#be202e;}.d{opacity:0.35;}.e{fill:url(#b);}.f{fill:url(#c);}.g{fill:url(#d);}.h{fill:url(#e);}.i{fill:url(#f);}.j{fill:url(#g);}.k{fill:url(#h);}.l{fill:url(#i);}.m{fill:url(#j);}.n{fill:#6d6e71;}</style><linearGradient id="a" x1="-10.754" y1="1.239" x2="-9.79" y2="2.479" gradientUnits="objectBoundingBox"><stop offset="0" stop-color="#f69923"/><stop offset="0.312" stop-color="#f79a23"/><stop offset="0.838" stop-color="#e97826"/></linearGradient><linearGradient id="b" x1="-17.195" y1="0.286" x2="-10.274" y2="0.286" gradientUnits="objectBoundingBox"><stop offset="0.323" stop-color="#9e2064"/><stop offset="0.63" stop-color="#c92037"/><stop offset="0.751" stop-color="#cd2335"/><stop offset="1" stop-color="#e97826"/></linearGradient><linearGradient id="c" x1="-12.9" y1="-2.361" x2="-9.448" y2="-2.361" gradientUnits="objectBoundingBox"><stop offset="0" stop-color="#282662"/><stop offset="0.095" stop-color="#662e8d"/><stop offset="0.788" stop-color="#9f2064"/><stop offset="0.949" stop-color="#cd2032"/></linearGradient><linearGradient id="d" x1="-12.199" y1="-0.252" x2="-6.845" y2="-0.252" xlink:href="#b"/><linearGradient id="e" x1="-17.504" y1="-1.101" x2="-13.168" y2="-1.101" xlink:href="#c"/><linearGradient id="f" x1="-7.998" y1="-0.141" x2="-4.556" y2="-0.141" xlink:href="#b"/><linearGradient id="g" x1="-11.767" y1="0.575" x2="-7.123" y2="0.575" xlink:href="#b"/><linearGradient id="h" x1="-439.976" y1="-207.016" x2="-264.703" y2="-207.016" xlink:href="#b"/><linearGradient id="i" x1="-1418.337" y1="-542.63" x2="-857.922" y2="-542.63" xlink:href="#b"/><linearGradient id="j" x1="-83889.578" y1="-6009.267" x2="-74473.18" y2="-6009.267" xlink:href="#b"/></defs><g transform="translate(0 0.013)"><path class="a" d="M1500.939.636c-2.14,1.262-5.694,4.839-9.939,10.02l3.9,7.36a96.149,96.149,0,0,1,8.322-10.446c.216-.239.329-.352.329-.352-.11.116-.219.236-.329.352a87.054,87.054,0,0,0-7.815,10.592,146.669,146.669,0,0,0,15.159-1.876c1.491-8.354-1.462-12.18-1.462-12.18S1505.349-1.969,1500.939.636Z" transform="translate(-1442.868 0)"/><path class="b" d="M1577.174,1320.216c.029-.006.058-.01.087-.016l-.562.061c-.036.016-.064.032-.1.045C1576.794,1320.277,1576.984,1320.245,1577.174,1320.216Z" transform="translate(-1525.705 -1277.595)"/><path class="b" d="M1441.875,1729.1c-.32.071-.646.126-.975.174C1441.229,1729.226,1441.555,1729.168,1441.875,1729.1Z" transform="translate(-1394.386 -1673.295)"/><path class="b" d="M519.974,1386.1c.042-.11.084-.22.123-.329q1.288-3.4,2.55-6.614,1.419-3.612,2.8-7,1.457-3.573,2.876-6.908,1.487-3.5,2.928-6.744,1.172-2.639,2.308-5.113.378-.823.755-1.633.746-1.6,1.475-3.141.673-1.419,1.336-2.776c.145-.3.294-.6.439-.9.023-.048.048-.1.071-.145l-.478.052-.381-.749c-.036.074-.074.145-.113.219q-1.027,2.039-2.034,4.116-.581,1.2-1.159,2.411-1.6,3.356-3.144,6.766-1.564,3.443-3.063,6.915-1.477,3.4-2.892,6.808t-2.763,6.76q-1.409,3.511-2.737,6.95-.3.775-.6,1.549-1.065,2.775-2.076,5.475l.6,1.185.536-.058c.019-.055.039-.11.058-.161Q518.7,1389.476,519.974,1386.1Z" transform="translate(-499.536 -1300.724)"/><path class="b" d="M1433.2,1735.6h0s0,0,.006,0A.01.01,0,0,0,1433.2,1735.6Z" transform="translate(-1386.934 -1679.585)"/><path class="c" d="M1346.846,1934.8c-.5.09-1.01.177-1.537.268,0,0-.006,0-.01,0,.265-.039.526-.077.784-.123S1346.594,1934.855,1346.846,1934.8Z" transform="translate(-1301.872 -1872.355)"/><path class="d" d="M1346.846,1934.8c-.5.09-1.01.177-1.537.268,0,0-.006,0-.01,0,.265-.039.526-.077.784-.123S1346.594,1934.855,1346.846,1934.8Z" transform="translate(-1301.872 -1872.355)"/><path class="c" d="M1433.31,1729.4a0,0,0,0,0,0,0s0,0-.006,0c.084-.01.165-.026.245-.036.333-.048.658-.107.975-.174-.4.065-.8.136-1.211.2Z" transform="translate(-1387.031 -1673.392)"/><path class="d" d="M1433.31,1729.4a0,0,0,0,0,0,0s0,0-.006,0c.084-.01.165-.026.245-.036.333-.048.658-.107.975-.174-.4.065-.8.136-1.211.2Z" transform="translate(-1387.031 -1673.392)"/><path class="e" d="M1004.867,356.877q1.777-3.322,3.6-6.489,1.889-3.283,3.822-6.359c.074-.119.152-.242.226-.365q1.908-3.022,3.851-5.8l-3.9-7.36c-.294.358-.588.723-.888,1.094-1.123,1.4-2.292,2.909-3.49,4.506-1.349,1.8-2.737,3.725-4.148,5.743-1.3,1.866-2.621,3.819-3.942,5.84-1.123,1.721-2.253,3.493-3.373,5.31l-.126.2,5.075,10.023Q1003.2,360,1004.867,356.877Z" transform="translate(-964.332 -319.844)"/><path class="f" d="M416.8,2705.008q-1.007,2.77-2.024,5.646c-.01.029-.019.055-.029.083-.1.271-.19.542-.287.813-.455,1.294-.852,2.46-1.759,5.11,1.495.681,2.7,2.476,3.832,4.513a8.183,8.183,0,0,0-2.65-5.623c7.37.333,13.72-1.53,17-6.918a13.607,13.607,0,0,0,.8-1.524c-1.491,1.892-3.341,2.7-6.824,2.5l-.023.01.023-.01c5.126-2.295,7.7-4.5,9.972-8.148.539-.865,1.062-1.811,1.6-2.86a16.061,16.061,0,0,1-15.15,4.92l-4.1.449C417.052,2704.314,416.926,2704.659,416.8,2705.008Z" transform="translate(-399.377 -2611.499)"/><path class="g" d="M365.973,1084.469q1.332-3.438,2.737-6.95,1.346-3.361,2.763-6.76t2.892-6.808q1.5-3.467,3.064-6.915,1.545-3.4,3.144-6.766.576-1.211,1.159-2.411,1.007-2.077,2.034-4.116c.036-.074.074-.145.113-.22l-5.075-10.023c-.084.135-.165.271-.249.407-1.182,1.93-2.36,3.906-3.515,5.924q-1.753,3.055-3.435,6.217-1.419,2.663-2.767,5.375c-.181.368-.358.729-.536,1.094-1.107,2.276-2.1,4.474-3.009,6.589q-1.535,3.593-2.712,6.853c-.52,1.427-.991,2.805-1.424,4.129-.355,1.13-.694,2.263-1.014,3.39q-1.138,3.985-1.947,7.948l5.1,10.068q1.012-2.7,2.076-5.475C365.573,1085.505,365.773,1084.985,365.973,1084.469Z" transform="translate(-346.637 -1000.15)"/><path class="h" d="M11.5,2518.749a78.309,78.309,0,0,0-1.324,9.62c-.006.113-.019.223-.026.336-1.591-2.55-5.853-5.039-5.843-5.017,3.051,4.423,5.365,8.813,5.711,13.123-1.633.336-3.871-.148-6.456-1.1a12.971,12.971,0,0,0,5.507,3.344c-2.476.155-5.055,1.856-7.654,3.816,3.8-1.55,6.869-2.163,9.068-1.666-3.486,9.872-6.982,20.77-10.479,32.34a3.044,3.044,0,0,0,2.069-2.011c.623-2.1,4.758-15.84,11.237-33.908q.276-.77.558-1.55c.052-.145.107-.29.158-.432q1.027-2.843,2.127-5.8c.168-.449.336-.9.5-1.349a.247.247,0,0,1,.01-.026L11.57,2518.4C11.547,2518.513,11.518,2518.629,11.5,2518.749Z" transform="translate(0 -2437.116)"/><path class="i" d="M571.728,1253.109c-.145.3-.291.6-.439.9q-.659,1.361-1.336,2.776-.731,1.535-1.475,3.141c-.252.539-.5,1.082-.755,1.634q-1.138,2.474-2.308,5.113-1.438,3.244-2.928,6.744-1.419,3.336-2.876,6.908-1.385,3.389-2.8,7-1.264,3.22-2.55,6.615c-.042.11-.084.219-.123.329q-1.278,3.375-2.576,6.931c-.019.055-.039.11-.058.161l4.1-.449c-.081-.016-.165-.026-.245-.042,4.907-.61,11.428-4.277,15.644-8.8a38.9,38.9,0,0,0,5.336-7.425,64,64,0,0,0,3.438-7.15c.949-2.3,1.859-4.787,2.737-7.486a14.879,14.879,0,0,1-3.841,1.333c-.249.052-.5.1-.762.149s-.52.087-.784.123h0s.006,0,.01,0c4.574-1.759,7.46-5.158,9.559-9.32a16.3,16.3,0,0,1-5.5,2.411c-.32.071-.646.126-.975.174-.084.013-.165.026-.245.036h0s0,0,.006,0a0,0,0,0,0,0,0h0a18.616,18.616,0,0,0,4.09-2.286c.249-.187.491-.381.723-.584.355-.307.691-.629,1.014-.968.207-.216.407-.439.6-.672a15.929,15.929,0,0,0,1.282-1.762c.123-.194.242-.391.362-.594.152-.294.3-.581.439-.865.639-1.285,1.149-2.431,1.556-3.438.2-.5.381-.968.533-1.4.061-.171.119-.339.174-.5.161-.484.294-.914.4-1.291a12.688,12.688,0,0,0,.3-1.34h0a4.9,4.9,0,0,1-.533.365,19.32,19.32,0,0,1-5.662,1.927l3.767-.413-3.767.413c-.029.006-.058.01-.087.016-.19.032-.384.061-.578.094.036-.016.065-.032.1-.045l-12.89,1.414C571.776,1253.016,571.753,1253.061,571.728,1253.109Z" transform="translate(-533.697 -1208.887)"/><path class="j" d="M1194.836,506.972c-1.146,1.759-2.4,3.758-3.745,6.02-.071.116-.142.239-.213.358q-1.743,2.939-3.7,6.466-1.685,3.051-3.506,6.563-1.588,3.065-3.276,6.508l12.89-1.414a15.673,15.673,0,0,0,7.063-5.549c.432-.623.868-1.275,1.3-1.95,1.323-2.066,2.621-4.342,3.783-6.6a68.635,68.635,0,0,0,2.867-6.3,33.146,33.146,0,0,0,1.136-3.412c.236-.894.42-1.743.562-2.553A146.934,146.934,0,0,1,1194.836,506.972Z" transform="translate(-1142.295 -488.807)"/><path class="c" d="M1346.084,1939.4c-.258.045-.52.087-.784.123h0C1345.565,1939.487,1345.826,1939.445,1346.084,1939.4Z" transform="translate(-1301.872 -1876.807)"/><path class="d" d="M1346.084,1939.4c-.258.045-.52.087-.784.123h0C1345.565,1939.487,1345.826,1939.445,1346.084,1939.4Z" transform="translate(-1301.872 -1876.807)"/><path class="k" d="M1346.084,1939.4c-.258.045-.52.087-.784.123h0C1345.565,1939.487,1345.826,1939.445,1346.084,1939.4Z" transform="translate(-1301.872 -1876.807)"/><path class="c" d="M1433.2,1734.635c.084-.01.165-.026.245-.036-.081.01-.161.023-.245.036Z" transform="translate(-1386.934 -1678.618)"/><path class="d" d="M1433.2,1734.635c.084-.01.165-.026.245-.036-.081.01-.161.023-.245.036Z" transform="translate(-1386.934 -1678.618)"/><path class="l" d="M1433.2,1734.635c.084-.01.165-.026.245-.036-.081.01-.161.023-.245.036Z" transform="translate(-1386.934 -1678.618)"/><path class="c" d="M1433.5,1735.5a0,0,0,0,0,0,0h0A0,0,0,0,0,1433.5,1735.5Z" transform="translate(-1387.225 -1679.489)"/><path class="d" d="M1433.5,1735.5a0,0,0,0,0,0,0h0A0,0,0,0,0,1433.5,1735.5Z" transform="translate(-1387.225 -1679.489)"/><path class="m" d="M1433.5,1735.5a0,0,0,0,0,0,0h0A0,0,0,0,0,1433.5,1735.5Z" transform="translate(-1387.225 -1679.489)"/><path class="n" d="M2218.7,387v.378h.884v2.5h.41v-2.5h.891V387Zm5.11,0-.988,2.008-.994-2.008h-.494v2.876h.378v-2.282l.978,1.979h.261l.978-1.979v2.282h.378V387Z" transform="translate(-2147.077 -374.52)"/></g></svg>