<svg xmlns="http://www.w3.org/2000/svg" width="119.471" height="119.471" viewBox="0 0 119.471 119.471"><defs><style>.a{fill:#543b79;}.b{fill:#dedede;}.c{fill:#493369;}</style></defs><path class="a" d="M109.515,0H9.956A9.956,9.956,0,0,0,0,9.956v99.559a9.956,9.956,0,0,0,9.956,9.956h99.559a9.96,9.96,0,0,0,9.956-9.956V9.956A9.96,9.96,0,0,0,109.515,0ZM88.667,83.893v.01a15.513,15.513,0,0,1-4.595,6.143,23.48,23.48,0,0,1-7.995,4.082,39.378,39.378,0,0,1-11.614,1.518H32.446V25.955H66.311c6.262,0,11.28,1.409,15.028,4.281,3.783,2.887,5.67,7.188,5.67,12.992a15.459,15.459,0,0,1-2.584,9.01,16.521,16.521,0,0,1-7.367,5.755v.229a15.039,15.039,0,0,1,9.7,6.053,20.405,20.405,0,0,1,3.275,11.882,19.922,19.922,0,0,1-1.493,7.606l.124.129Z"/><path class="a" d="M39.179,38.028c-2.041-1.867-4.908-2.778-8.617-2.778H9.053V56.994H30.627c3.679,0,6.571-.956,8.612-2.887s3.086-4.649,3.086-8.164c-.035-3.435-1.045-6.093-3.086-7.915ZM36.167,23.976h.025c1.971-1.673,2.937-4.067,2.937-7.188,0-3.5-.876-5.993-2.643-7.417S32.205,7.215,28.88,7.215H8.968v19.23H28.88a10.953,10.953,0,0,0,7.288-2.469Z" transform="translate(35.674 28.701)"/><path class="b" d="M33.807,5.214H6.518V74.905H33.807V64.954H18.8V43.211H33.807V34.4H18.719V15.175H33.807Z" transform="translate(25.928 20.741)"/><path class="c" d="M59.735,0H9.956A9.956,9.956,0,0,0,0,9.956v99.559a9.956,9.956,0,0,0,9.956,9.956H59.735V95.646H32.446V25.955H59.735V0Z"/><path class="c" d="M23.994,12.847H8.985V34.591H23.994Z" transform="translate(35.742 51.105)"/><path class="c" d="M24.057,7.215H8.969v19.23H24.057Z" transform="translate(35.678 28.701)"/></svg>