<svg xmlns="http://www.w3.org/2000/svg" width="145.168" height="93.417" viewBox="0 0 145.168 93.417"><defs><style>.a{fill:#019bc6;}</style></defs><path class="a" d="M144.769,56.649c-5-2.9-11.619-3.253-17.2-1.627-.7-6.042-4.648-11.27-9.3-14.988l-1.859-1.51-1.627,1.859c-3.137,3.6-4.067,9.644-3.6,14.291a19.429,19.429,0,0,0,3.486,9.644,35.893,35.893,0,0,1-5,2.789c-3.253,1.162-6.855,2.324-10.341,2.324H91.554V53.047h-15.1V24H59.02V37.943H29.973v15.1h-15.1V69.314H1.855l-.232,1.743a42.709,42.709,0,0,0,3.486,21.5l1.278,2.556.116.232c9.179,15.569,25.213,22.076,42.758,22.076,33.927,0,61.929-15.221,74.71-47.173,8.6.465,17.428-2.091,21.611-10.341l1.046-2.091-1.859-1.162ZM32.3,41.428H43.916V54.209H32.3ZM47.518,92.784a3.6,3.6,0,1,1-3.6-3.6A3.7,3.7,0,0,1,47.518,92.784ZM32.3,56.533H43.916V69.314H32.3V56.533Zm-15.1,0H29.973V69.314H17.192ZM49.377,114.86c-18.358-.116-28.234-6.274-36.367-14.408,2.44.116,4.764.232,6.855.232,1.859,0,3.718,0,5.461-.116a53.354,53.354,0,0,0,11.735-1.743c2.672,6.158,7.552,11.851,16.267,16.034ZM59.02,69.314H46.24V56.533H59.02Zm0-15.1H46.24V41.428H59.02Zm15.1,15.1H61.344V56.533H74.125Zm0-15.1H61.344V41.428H74.125Zm0-15.1H61.344V26.324H74.125Zm15.1,30.209H76.449V56.533H89.23ZM44.845,90.461a2.189,2.189,0,0,0-.93-.232,2.556,2.556,0,1,0,2.556,2.556,2.189,2.189,0,0,0-.232-.93,1.041,1.041,0,0,1-1.975-.465,1.433,1.433,0,0,1,.581-.93Z" transform="translate(-1.46 -24)"/></svg>