<svg xmlns="http://www.w3.org/2000/svg" width="185.981" height="41.503" viewBox="0 0 185.981 41.503"><defs><style>.a{fill:#fff;}</style></defs><path class="a" d="M59.829,91.7V51.012h2.209v6.4a8.37,8.37,0,0,0,.721-.9,10.939,10.939,0,0,1,9.977-6.191c5.034-.15,9.121,1.713,11.525,6.191a19.894,19.894,0,0,1,.481,18.241c-2.239,5.019-7.768,7.513-13.688,6.6a11.074,11.074,0,0,1-8.835-5.83V91.7Zm2.209-26.295c.2,1.983.27,3.4.5,4.778.871,5.439,4.087,8.67,9.136,9.256a10.383,10.383,0,0,0,11.4-6.6A17.685,17.685,0,0,0,82.683,58.3a10.172,10.172,0,0,0-10.713-5.92,9.9,9.9,0,0,0-8.85,7.317,50.189,50.189,0,0,0-1.082,5.71Zm69.734,5.529a11.9,11.9,0,0,1-11.63,10.518c-9.256.466-13.6-5.68-14.289-12.772a20.465,20.465,0,0,1,1.8-11.269A12.576,12.576,0,0,1,120.743,50.4a12.021,12.021,0,0,1,10.668,9.151,61.737,61.737,0,0,1,1.037,6.762H108.121c-.451,6.431,3.005,11.6,7.9,12.847,6.1,1.5,11.314-1.142,13.208-6.942C129.653,70.726,130.419,70.516,131.771,70.936Zm-23.65-6.686h21.742c-.135-6.852-4.4-11.81-10.187-11.885C113.125,52.259,108.407,57.038,108.121,64.25Zm28.128,6.837h2.134a8.55,8.55,0,0,0,5.019,7.363,13.117,13.117,0,0,0,11.389-.3,5.124,5.124,0,0,0,3.005-5.034,4.643,4.643,0,0,0-3.125-4.643c-2.344-.871-4.838-1.352-7.227-2.119a52.967,52.967,0,0,1-7.272-2.66c-3.847-1.878-4.087-9.2.27-11.51a15.341,15.341,0,0,1,14.665-.225,7.723,7.723,0,0,1,3.907,7.873H157.18c0-.09-.165-.165-.165-.255-.225-5.845-5.124-7.648-10.383-7.137a13.778,13.778,0,0,0-4.508,1.367,4.811,4.811,0,0,0,.391,8.745c2.314.841,4.733,1.382,7.107,2.043,1.908.526,3.892.871,5.74,1.5a6.777,6.777,0,0,1,4.658,6.115,7.227,7.227,0,0,1-3.892,7.513c-5.019,2.84-13.283,2.089-16.964-1.5a10.022,10.022,0,0,1-2.915-7.137Zm50.817-11.254h-2a4.955,4.955,0,0,0-.135-.736,6.536,6.536,0,0,0-5.319-6.281,13.117,13.117,0,0,0-8.429.406,5.124,5.124,0,0,0-3.711,4.883,4.718,4.718,0,0,0,3.606,4.748c3.005.932,6.085,1.5,9.136,2.344a25.544,25.544,0,0,1,2.915.887,7.513,7.513,0,0,1,.406,13.989,16.724,16.724,0,0,1-13.523.135,9.376,9.376,0,0,1-5.65-9.106h1.953a10.954,10.954,0,0,0,16.678,6.972,5.364,5.364,0,0,0,2.885-5.019,4.643,4.643,0,0,0-3.17-4.613c-2.344-.871-4.838-1.337-7.227-2.1a53.236,53.236,0,0,1-7.317-2.629c-3.756-1.848-4.057-9.106.225-11.42a15.131,15.131,0,0,1,14.905-.165A7.858,7.858,0,0,1,187.066,59.832ZM56.177,80.718A3.441,3.441,0,0,1,51.91,79.1c-2.449-3.666-5.154-7.167-7.753-10.743l-1.127-1.5c-3.1,4.147-6.191,8.129-9.015,12.261A3.306,3.306,0,0,1,29.958,80.7L41.572,65.121l-10.8-14.079a3.591,3.591,0,0,1,4.282,1.5c2.509,3.666,5.289,7.167,8.054,10.879,2.78-3.681,5.529-7.2,8.1-10.834a3.231,3.231,0,0,1,4.027-1.5l-4.192,5.56c-1.878,2.479-3.726,4.973-5.68,7.393a1.5,1.5,0,0,0,0,2.239C48.95,71.042,52.511,75.82,56.177,80.718Zm49.314-29.826V53a10.894,10.894,0,0,0-11.6,11.254q0,7.423,0,14.845v1.683H91.743V51.012h2.1v6.1C96.446,52.665,100.458,51.012,105.492,50.892ZM2.13,64.926c.316-1.5.511-3.14.947-4.673,2.6-9.241,13.193-13.087,20.48-7.363,4.267,3.351,5.334,8.1,5.124,13.448H4.639c-.391,9.556,6.506,15.326,15.326,12.381a9.151,9.151,0,0,0,5.815-6.476c.466-1.5,1.217-1.758,2.645-1.322a12.2,12.2,0,0,1-5.83,8.91,14.124,14.124,0,0,1-16.453-2.1,14.8,14.8,0,0,1-3.7-8.685,7.2,7.2,0,0,0-.3-1.5Q2.13,66.2,2.13,64.926Zm2.539-.646H26.411c-.135-6.927-4.508-11.84-10.338-11.885C9.583,52.3,4.94,57.113,4.654,64.25Z" transform="translate(-2.13 -50.198)"/></svg>