<svg xmlns="http://www.w3.org/2000/svg" width="98.56" height="112.642" viewBox="0 0 98.56 112.642"><defs><style>.a{fill:#df34a6;}</style></defs><path class="a" d="M16.317,24.49a9.8,9.8,0,0,0-13.508,3.67,10.17,10.17,0,0,0-1.033,2.656A10.062,10.062,0,0,0,9.07,42.945l0,26.748a9.849,9.849,0,0,0-4.815,2.83,10.172,10.172,0,0,0,.324,14.2A9.76,9.76,0,0,0,18.537,86.4L41.314,99.759a10.213,10.213,0,0,0-.408,2.858,9.95,9.95,0,0,0,9.875,10.025,9.8,9.8,0,0,0,3.093-.507,10.086,10.086,0,0,0,6.28-12.7L82.785,86.143a9.963,9.963,0,0,0,2.427,2.013,9.8,9.8,0,0,0,13.508-3.67,10.121,10.121,0,0,0,1.07-2.727A10.016,10.016,0,0,0,92.5,69.7V42.954a9.716,9.716,0,0,0,2.577-1.047,10.159,10.159,0,0,0,3.67-13.742,9.965,9.965,0,0,0-1.741-2.239,9.777,9.777,0,0,0-13.991.361L60.242,12.912a10.211,10.211,0,0,0,.413-2.9A9.945,9.945,0,0,0,50.781,0a9.692,9.692,0,0,0-2.816.413,10.062,10.062,0,0,0-6.651,12.47L18.527,26.26A9.548,9.548,0,0,0,16.317,24.49ZM58.083,95.844a9.774,9.774,0,0,0-14.409-.211L20.883,82.247l.1-.39h59.6c.052.225.108.446.174.666Zm-.216-78.817L80.692,30.442c-.033.108-.061.225-.089.338a10.034,10.034,0,0,0,7.19,12.147V69.711c-.122.033-.258.066-.38.108L57.6,17.3A2.926,2.926,0,0,0,57.868,17.028Zm-9.833,2.656a9.791,9.791,0,0,0,5.5,0l29.817,52.5a10.163,10.163,0,0,0-2.783,4.9H21A10.213,10.213,0,0,0,18.227,72.2ZM20.855,30.409,43.679,17.023l.277.282-29.8,52.515-.39-.108V42.921c.117-.033.23-.061.352-.1A10.047,10.047,0,0,0,20.855,30.409Z" transform="translate(-1.5)"/></svg>