<svg xmlns="http://www.w3.org/2000/svg" width="102.959" height="98.67" viewBox="0 0 102.959 98.67"><defs><style>.a{fill:#1266a9;}</style></defs><g transform="translate(0 -0.5)"><path class="a" d="M6.031,57.586a6.341,6.341,0,0,0,.33.635,3.621,3.621,0,0,0,.2.356c.112.223.232.438.347.652l.674,1.133c.124.21.245.416.386.622.236.4.515.8.759,1.2.112.167.215.335.339.5.472.734.9,1.343,1.36,1.935.326.442.652.875,1,1.308.116.163.245.326.365.489l.948,1.15c.116.133.232.287.356.425.42.506.867,1,1.313,1.493,0,.009.013.017.021.03a13.015,13.015,0,0,0,1.8,1.862l.017.017c.343.352.686.7,1.051,1.042l.433.416c.476.446.952.888,1.454,1.317.009,0,.013.009.021.013l.245.215c.438.382.879.759,1.33,1.111l.536.45c.365.292.742.566,1.115.854l.583.446c.4.3.824.592,1.231.884.15.107.3.215.455.313l.124.1,1.205.789.515.343c.631.4,1.257.781,1.883,1.158.18.09.36.189.528.292.463.266.944.536,1.411.781.257.146.523.27.789.4.322.18.656.356,1,.536a1.312,1.312,0,0,1,.249.1l.017-.017c.142.064.275.133.412.2.515.257,1.051.5,1.609.742a3.5,3.5,0,0,1,.326.146c.618.27,1.236.528,1.875.776.146.043.3.116.45.172.579.219,1.175.442,1.767.652l.215.077c.656.223,1.3.438,1.973.639.154.043.313.1.476.142a19.464,19.464,0,0,0,2.033.579c44.071,7.992,56.877-26.366,56.877-26.366C89.686,74.648,70.591,78.324,52.509,74.232c-.669-.154-1.338-.369-2.016-.566-1.227-.356-2.042-.613-2.844-.9l.408.124-.266-.1c-.583-.2-1.145-.416-1.716-.635-.107-.047-.266-.107-.425-.163l-.047-.013c-.631-.253-1.244-.511-1.853-.781-.133-.043-.245-.1-.378-.154-1.124-.5-1.634-.738-2.145-.987l.592.262c-.159-.069-.3-.142-.455-.223-.4-.189-.807-.4-1.2-.6-.369-.176-.631-.313-.888-.455l.086.043c-.485-.257-.97-.536-1.459-.8-.146-.1-.313-.189-.48-.283-.927-.541-1.54-.922-2.154-1.313l.27.163c-.206-.129-.373-.24-.532-.356l.026.017c-.528-.326-.948-.6-1.356-.892-.146-.094-.279-.2-.429-.3-.549-.378-.961-.674-1.364-.978l.1.073c-.18-.146-.373-.283-.566-.425-.378-.3-.759-.579-1.137-.888l-.506-.4c-.545-.438-1-.819-1.446-1.21a.926.926,0,0,0-.142-.116l0,0L26.7,60.014l-.429-.4c-.352-.356-.712-.695-1.073-1.047l-.416-.429c-.446-.442-.875-.888-1.3-1.351l-.026-.03-.073-.06c-.455-.5-.9-1-1.343-1.514-.116-.133-.223-.275-.343-.416l-.974-1.18c-.339-.42-.815-1.042-1.287-1.677l-.172-.24C9.231,38.041,5.6,19.238,13.629,3.811L6.541,12.773C-2.575,25.81-1.447,42.764,5.525,56.608,5.683,56.947,5.859,57.265,6.031,57.586Z" transform="translate(0 10.893)"/><path d="M8.629,12.06c-.017-.021-.03-.047-.047-.069l-.039-.051Z" transform="translate(28.106 37.638)"/><path class="a" d="M18.619,51.8l.386.386c.489.472.991.931,1.5,1.39l.064.056c.515.455,1.094.931,1.69,1.394l.09.069c.146.1.27.215.412.313.6.463,1.205.905,1.836,1.347l.064.039c.266.193.549.369.849.558.12.077.257.18.386.257.455.292.9.562,1.36.841.073.03.137.069.206.1.386.236.807.463,1.21.669.142.086.279.15.425.232.287.142.571.292.845.438l.137.06c.579.283,1.171.549,1.75.811.146.056.27.1.395.163.476.206.961.4,1.437.583.215.073.416.159.618.223.438.163.9.313,1.33.463l.6.193a13.773,13.773,0,0,0,1.926.549c34.033,5.6,41.909-20.468,41.909-20.468-7.091,10.154-20.815,14.994-35.44,11.214-.888-.227-1.532-.416-2.171-.622l.245.069c-.206-.056-.386-.12-.583-.18-.446-.154-.905-.3-1.338-.463l-.618-.232c-.48-.193-.97-.373-1.437-.579-.146-.064-.279-.107-.39-.172-.6-.27-1.205-.536-1.793-.819l-.884-.459-.511-.257c-.395-.206-.759-.42-1.137-.639a2.393,2.393,0,0,1-.279-.154l.013,0c-.455-.283-.927-.558-1.364-.845-.146-.082-.279-.18-.416-.266l-.892-.579c-.618-.429-1.223-.888-1.836-1.334-.137-.124-.27-.227-.4-.339A40.658,40.658,0,0,1,14.9,26.112c-2.535-8.1-1.978-17.173,2.4-24.539L11.923,9.158C5.312,18.6,5.685,31.221,10.833,41.208a38.543,38.543,0,0,0,2.943,4.886,22.473,22.473,0,0,0,3.363,4.161C17.6,50.784,18.1,51.286,18.619,51.8Z" transform="translate(22.911 3.53)"/><path d="M2.472,18.041l-.017-.026-.03-.039Z" transform="translate(7.978 57.499)"/><path d="M6.594,17.248l.043.03.009.013Z" transform="translate(21.694 55.101)"/><path class="a" d="M16.211,4.477a19.644,19.644,0,0,0-1.587,19.039A26.95,26.95,0,0,0,30.1,37.9c.279.107.549.2.837.3l.378.116c.395.124.794.27,1.2.36,18.795,3.608,23.882-9.6,25.251-11.544-4.474,6.392-11.978,7.928-21.184,5.7a20.389,20.389,0,0,1-2.359-.729l.142.047a26.581,26.581,0,0,1-2.814-1.158l.163.073a27.68,27.68,0,0,1-4.672-2.849C18.815,21.993,13.727,10.148,19.1.5Z" transform="translate(42.416 0)"/></g></svg>