<svg xmlns="http://www.w3.org/2000/svg" width="100.251" height="100.251" viewBox="0 0 100.251 100.251"><defs><style>.a{fill:#f7df1e;}</style></defs><path class="a" d="M0,0H100.251V100.251H0Z"/><path d="M67.311,154.444l7.672-4.643c1.48,2.624,2.827,4.845,6.056,4.845,3.1,0,5.048-1.211,5.048-5.921V116.692h9.421v32.166c0,9.758-5.72,14.2-14.065,14.2-7.536,0-11.911-3.9-14.132-8.614m33.314-1.009,7.671-4.441c2.02,3.3,4.644,5.72,9.287,5.72,3.9,0,6.393-1.952,6.393-4.644,0-3.23-2.557-4.374-6.864-6.258l-2.355-1.01c-6.8-2.893-11.306-6.527-11.306-14.2,0-7.066,5.383-12.45,13.8-12.45,5.989,0,10.3,2.086,13.391,7.537L123.3,128.4c-1.615-2.894-3.364-4.037-6.056-4.037-2.759,0-4.509,1.75-4.509,4.037,0,2.826,1.75,3.971,5.787,5.721l2.355,1.009c8.008,3.432,12.517,6.931,12.517,14.8,0,8.48-6.662,13.123-15.612,13.123-8.748,0-14.4-4.172-17.16-9.623" transform="translate(-40.952 -70.667)"/></svg>