<svg xmlns="http://www.w3.org/2000/svg" width="101" height="101" viewBox="0 0 101 101"><defs><style>.a{fill:#f34e39;}</style></defs><path class="a" d="M101,7.876c-.669-.9-1.536-2.1-2.39-3.321l-.261-.394V4.114C97.3,2.537,96.539,2.769,95.7,3S75.624,7.036,74.445,7.176c-1.178.232-.8.928-.295,1.67L90.984,34.364,101,31.725ZM.084,58.45l18.222-4.824c1.473-.371,1.094-.557.379-1.994L.084,16.225ZM13.467,101H43.725C39.769,93.9,29,72.462,23.4,61.279h-.042v-.046L0,67.963V86.2C.025,94.377,6.043,101,13.467,101Z"/><path class="a" d="M24,12.775V10.584l-1.35.371.1.14Z" transform="translate(77 37.368)"/><path class="a" d="M84.8,42.029,65.7,14.991c-1.6-2.231,0-3.241,2.615-3.662,2.531-.463,24.631-4.168,26.572-4.42,1.561-.253,2.868-.758,5.061,1.263A13.389,13.389,0,0,0,87.588,0H13.25A13.43,13.43,0,0,0,.07,10.907L27.021,55.841ZM101,63.675,90.2,48.937c-.675-1.052-1.054-1.263-2.7-.716L31.155,62.876s17.293,29.9,18.6,31.8c1.35,1.936,2.151,1.768,3.205,1.347.759-.337,32.9-11.2,48.04-16.3Zm-.042,24.976L66.415,100.99H87.588A13.39,13.39,0,0,0,100.958,88.651Z"/></svg>