<svg xmlns="http://www.w3.org/2000/svg" width="47.017" height="104.676" viewBox="0 0 47.017 104.676"><defs><style>.a{fill:#599636;}.b{fill:#6cac48;}.c{fill:#c2bfbf;}</style></defs><g transform="translate(-8.813 0)"><path class="a" d="M15.955.087l2.793,5.246a15.674,15.674,0,0,0,2.11,2.623,73.289,73.289,0,0,1,6.555,7.412,64.412,64.412,0,0,1,10.205,20.58,50.607,50.607,0,0,1,2.165,13.967A49.288,49.288,0,0,1,25.392,86.288a41.538,41.538,0,0,1-5.135,4.39c-.968,0-1.426-.742-1.825-1.426a11.739,11.739,0,0,1-1.426-4.1,19.834,19.834,0,0,1-.458-5.188v-.8C16.469,78.99,15.615.489,15.955.087Z" transform="translate(16.039 0.198)"/><path class="b" d="M31.994.112c-.114-.229-.229-.056-.343.056a5.271,5.271,0,0,1-.968,3.14,15.044,15.044,0,0,1-2.509,2.509A54.636,54.636,0,0,0,15.918,21.438,62.754,62.754,0,0,0,8.852,46.977C8.568,50.225,9.879,61.686,10.9,64.993a54.615,54.615,0,0,0,14.31,22.52,62.531,62.531,0,0,0,5.07,4.334c.514,0,.569-.458.687-.8a15.634,15.634,0,0,0,.514-2.224l1.145-8.55Z" transform="translate(0 0)"/><path class="c" d="M19.881,39.727a7.8,7.8,0,0,1,1.426-3.477,3.6,3.6,0,0,1-1.6-1.482,10.582,10.582,0,0,1-.85-1.881,32.554,32.554,0,0,1-1.2-7.353V24.053a7.107,7.107,0,0,0-.343,2.453,56.817,56.817,0,0,1-1.027,7.7,6.848,6.848,0,0,1-.916,2.963,1.135,1.135,0,0,0,.056.4A34.041,34.041,0,0,1,16.914,46.8v1.145c0,1.367-.056,1.079,1.079,1.537a5,5,0,0,1,1.426.569c.343,0,.4-.285.4-.514l-.17-1.881V42.412a13.874,13.874,0,0,1,.229-2.682Z" transform="translate(14.906 54.622)"/></g></svg>