
<svg xmlns="http://www.w3.org/2000/svg" width="130" height="130" viewBox="0 0 130 130"><defs><style>.a{fill:#fff;stroke:#707070;}.b{stroke:none;}.c{fill:none;}</style></defs><g transform="translate(-645.319 -4933.319)"><g transform="translate(645 4933)"><g class="a" transform="translate(0.319 0.319)"><circle class="b" cx="65" cy="65" r="65"/><circle class="c" cx="65" cy="65" r="64.5"/></g><path d="M57.979.033c-.267.024-1.116.109-1.88.17A62.193,62.193,0,0,0,11.511,25.914,61.408,61.408,0,0,0,.558,53.02,47.475,47.475,0,0,0,0,62.055,47.483,47.483,0,0,0,.558,71.09,62.294,62.294,0,0,0,43,121.214a65.579,65.579,0,0,0,13.1,2.717,114.4,114.4,0,0,0,11.887,0,62.654,62.654,0,0,0,22.355-6.537c1.067-.546,1.274-.691,1.128-.813-.1-.073-4.645-6.173-10.1-13.547l-9.922-13.4L59.01,71.236C52.169,61.121,46.541,52.85,46.493,52.85s-.1,8.162-.121,18.143c-.036,17.476-.049,18.179-.267,18.592a2.2,2.2,0,0,1-1.067,1.1c-.388.194-.728.23-2.559.23h-2.1l-.558-.351a2.269,2.269,0,0,1-.813-.886l-.255-.546.024-24.316.036-24.328.376-.473a3.326,3.326,0,0,1,.9-.74c.5-.243.691-.267,2.79-.267,2.474,0,2.887.1,3.53.8.182.194,6.914,10.333,14.968,22.546S80.443,91.246,85.853,99.433l9.825,14.881.5-.328A63.684,63.684,0,0,0,108.923,102.8a61.757,61.757,0,0,0,14.6-31.714,47.484,47.484,0,0,0,.558-9.035,47.476,47.476,0,0,0-.558-9.035A62.294,62.294,0,0,0,81.086,2.9,65.142,65.142,0,0,0,68.168.191C67,.07,58.986-.064,57.979.033Zm25.4,37.523A2.447,2.447,0,0,1,84.6,38.988c.1.315.122,7.058.1,22.255l-.036,21.806-3.845-5.894L76.962,71.26V55.409c0-10.248.048-16.009.121-16.288a2.476,2.476,0,0,1,1.2-1.528c.5-.255.679-.279,2.584-.279C82.663,37.314,82.978,37.338,83.379,37.557Z" transform="translate(3.393 3.393)"/></g></g></svg>