<svg xmlns="http://www.w3.org/2000/svg" width="114.11" height="130.411" viewBox="0 0 114.11 130.411"><defs><style>.a{fill:#209237;}</style></defs><path class="a" d="M115.61,97.809V32.6L58.555,0,1.5,32.6V97.809l57.055,32.6ZM40.276,90.142a6.971,6.971,0,0,1-6.993,7.01h-.413a7.1,7.1,0,0,1-7.08-7.01V40.265c0-3.831,3.456-7.01,8.232-7.01a13.133,13.133,0,0,1,10.042,4.4l32.766,38.8V40.265a7.094,7.094,0,0,1,7.08-7.01h.413a7.1,7.1,0,0,1,7.08,7.01V90.147h.082c0,3.831-3.548,7.01-8.39,7.01a12.938,12.938,0,0,1-9.884-4.4l-32.934-38.8Z" transform="translate(-1.5)"/></svg>