<svg xmlns="http://www.w3.org/2000/svg" width="166.454" height="28.285" viewBox="0 0 166.454 28.285"><defs><style>.a{fill:#1fd3ef;}.b{fill:#5d5d5d;}</style></defs><g transform="translate(-0.8 -0.868)"><path class="a" d="M260.758,1.126h6.195c5.225,7.531,10.626,15.481,16.077,23.338,5.434-7.838,10.654-15.716,15.94-23.341h6.2V29.171h-4.085V5.15L284.57,29.171l-3.155-.005L264.915,5.15l-.039,24.021h-4.117V1.126" transform="translate(-175.31 -0.172)"/><path class="b" d="M420.416,11.484s-2.539.028-3.538.028c-.6-7.075,1.392-9.559,7.221-10.041,6.359-.23,10.981-.13,16.739,0,4.272.332,6.2,2,6.748,6.26a20.783,20.783,0,0,1,.1,4.093c-.278,3.974-2.1,5.91-6.079,6.294-4.765.46-9.546.742-14.318,1.129a32.916,32.916,0,0,0-3.9.486c-2.38.484-3.265,1.037-3.373,3.419-.038.849.049,2.034.049,3.082h27.623l.029,3.08H416.758a58.082,58.082,0,0,1,.16-7.371c.475-3.237,2.63-4.814,5.636-5.347,4.949-.879,9.986-.845,14.976-1.313q1.786-.164,3.56-.436a2.464,2.464,0,0,0,1.949-.825c1.4-.8,1.2-4.65.856-7.16-.432-1.844-2.214-2.619-3.96-2.684-5.13-.193-10.264-.2-15.392.009-2.539.1-3.855,1.586-4.072,4.375-.074.95-.055,2.922-.055,2.922" transform="translate(-280.487 -0.315)"/><path class="a" d="M49.893,4.223,49.907.871s16.464-.006,23.821,0c4.9,0,7.092,2.164,7.181,7.076a31.648,31.648,0,0,1-.215,4.6c-.4,3.157-2.049,4.876-5.233,5.386a40.808,40.808,0,0,1-6.315.2c-5.069.023-10.138.007-15.428.007V29h-3.8V14.792s14.436.088,20.709.008c4.8-.061,6.736-.429,6.019-6.992-.28-2.559-1.221-3.443-3.92-3.5-4.5-.1-22.831-.086-22.831-.086M21.49,29.147c-5.924,0-11.849.015-17.773-.007C1.634,29.132.534,27.918.854,26.058c.292-1.7,1.463-2.105,3-2.1q16.149.029,32.3.01c1.139,0,2.279-.026,3.417.007a2.5,2.5,0,0,1,2.763,2.571A2.448,2.448,0,0,1,39.6,29.133c-6.038.034-12.076.013-18.114.014" transform="translate(0)"/><path class="b" d="M21.49,43.057c-5.924,0-11.849.015-17.773-.007C1.634,43.042.534,41.828.854,39.968c.292-1.7,1.463-2.1,3-2.1q16.149.029,32.3.01c1.139,0,2.279-.026,3.417.007a2.5,2.5,0,0,1,2.763,2.571A2.448,2.448,0,0,1,39.6,43.043c-6.038.034-12.076.013-18.114.014" transform="translate(0 -24.95)"/><path class="a" d="M21.49,7.312c-5.924,0-11.849.015-17.773-.007C1.634,7.3.534,6.083.854,4.223c.292-1.7,1.463-2.105,3-2.1q16.149.028,32.3.01c1.139,0,2.279-.026,3.417.007a2.5,2.5,0,0,1,2.763,2.571A2.448,2.448,0,0,1,39.6,7.3c-6.038.034-12.076.013-18.114.014" transform="translate(0 -0.845)"/></g></svg>