<svg xmlns="http://www.w3.org/2000/svg" width="151.899" height="156.634" viewBox="0 0 151.899 156.634"><defs><style>.a{stroke:#000;stroke-width:14px;}.b{fill:#336791;}.c,.d,.g{fill:none;stroke-linecap:round;}.c,.d,.e,.f,.g{stroke:#fff;}.c,.g{stroke-linejoin:round;}.c,.d{stroke-width:6px;}.d{stroke-linejoin:bevel;}.e,.f{fill:#fff;}.e{stroke-width:4.155px;}.f{stroke-width:2.078px;}.g{stroke-width:3px;}</style></defs><g transform="translate(0.289 -11.293)"><path class="a" d="M125.46,125.49c.99-8.249.693-9.459,6.838-8.123l1.56.137c4.725.215,10.905-.76,14.536-2.447,7.816-3.627,12.451-9.682,4.744-8.091-17.58,3.627-18.789-2.326-18.789-2.326,18.564-27.544,26.324-62.509,19.626-71.068-18.27-23.345-49.9-12.306-50.424-12.019l-.168.031a62.668,62.668,0,0,0-11.728-1.222c-7.956-.131-13.993,2.086-18.572,5.559,0,0-56.418-23.243-53.793,29.231.558,11.163,16,84.467,34.419,62.325,6.732-8.1,13.237-14.942,13.237-14.942A17.075,17.075,0,0,0,78.1,105.384l.314-.267a12.227,12.227,0,0,0,.125,3.152c-4.744,5.3-3.35,6.232-12.836,8.185-9.6,1.978-3.959,5.5-.279,6.42,4.463,1.116,14.787,2.7,21.765-7.069l-.278,1.114c1.861,1.489,1.735,10.7,2,17.285s.705,12.726,2.047,16.348,2.925,12.95,15.392,10.278c10.419-2.233,18.385-5.446,19.111-35.34" transform="translate(-12.489 -0.404)"/><path class="b" d="M153.136,106.965c-17.582,3.627-18.791-2.326-18.791-2.326C152.91,77.093,160.67,42.127,153.973,33.57c-18.27-23.344-49.9-12.3-50.424-12.017l-.17.03a62.7,62.7,0,0,0-11.73-1.222c-7.956-.13-13.99,2.086-18.57,5.558,0,0-56.419-23.242-53.795,29.232.558,11.163,16,84.467,34.419,62.326,6.732-8.1,13.236-14.942,13.236-14.942a17.075,17.075,0,0,0,11.153,2.848l.315-.267a12.292,12.292,0,0,0,.126,3.152c-4.745,5.3-3.351,6.232-12.836,8.185-9.6,1.978-3.96,5.5-.278,6.42,4.463,1.116,14.788,2.7,21.764-7.069l-.278,1.114c1.859,1.489,3.165,9.686,2.946,17.116s-.365,12.532,1.1,16.517,2.925,12.95,15.394,10.278c10.419-2.233,15.819-8.019,16.57-17.671.533-6.862,1.739-5.847,1.815-11.982l.968-2.9c1.116-9.3.177-12.3,6.6-10.907l1.56.137c4.725.215,10.908-.76,14.537-2.447,7.815-3.627,12.45-9.682,4.744-8.091Z" transform="translate(-12.486 -0.403)"/><path class="c" d="M215.566,286.484c-.484,17.308.122,34.736,1.815,38.971s5.321,12.474,17.791,9.8c10.418-2.234,14.209-6.556,15.854-16.1,1.212-7.019,3.547-26.514,3.847-30.508" transform="translate(-140.113 -174.59)"/><path class="c" d="M72.759,28.853S16.3,5.779,18.927,58.252c.558,11.163,16,84.47,34.42,62.327,6.731-8.1,12.818-14.448,12.818-14.448" transform="translate(-12.254 -3.724)"/><path class="c" d="M260.2,20.918c-1.954.613,31.4-12.195,50.363,12.03,6.7,8.558-1.064,43.524-19.627,71.07" transform="translate(-169.195)"/><path class="d" d="M207.546,107.1s1.21,5.955,18.792,2.325c7.7-1.591,3.068,4.465-4.746,8.093-6.412,2.976-20.788,3.739-21.023-.374-.6-10.61,7.566-7.387,6.977-10.045-.533-2.394-4.187-4.744-6.6-10.6-2.11-5.115-28.94-44.338,7.441-38.513,1.333-.276-9.488-34.6-43.535-35.163s-32.923,41.861-32.923,41.861" transform="translate(-85.81 -3.084)"/><path class="c" d="M154.842,270.711c-4.746,5.3-3.35,6.232-12.836,8.185-9.6,1.978-3.959,5.5-.279,6.419,4.463,1.117,14.788,2.7,21.764-7.071,2.124-2.974-.013-7.72-2.931-8.93C159.15,268.73,157.265,268,154.842,270.711Z" transform="translate(-88.918 -163.064)"/><path class="c" d="M150.343,176.36c-.478-3.117,1.024-6.826,2.634-11.165,2.419-6.51,8-13.022,3.536-33.674-3.329-15.39-25.654-3.2-25.668-1.116s1.01,10.577-.373,20.464c-1.8,12.9,8.21,23.814,19.741,22.7" transform="translate(-84.73 -68.805)"/><path class="e" d="M172.508,140.01c-.1.713,1.3,2.615,3.137,2.869a3.379,3.379,0,0,0,3.495-1.943c.1-.713-1.3-1.5-3.138-1.753s-3.4.116-3.494.827Z" transform="translate(-112.207 -78.723)"/><path class="f" d="M319.586,135.854c.1.713-1.3,2.615-3.137,2.869a3.382,3.382,0,0,1-3.5-1.943c-.1-.713,1.307-1.5,3.138-1.753s3.4.116,3.5.828Z" transform="translate(-203.561 -76.02)"/><path class="c" d="M343.4,123.432c.3,5.59-1.2,9.4-1.394,15.349-.281,8.65,4.124,18.551-2.513,28.464" transform="translate(-220.831 -68.53)"/><path class="g" d="M0,60.232" transform="translate(0 -27.421)"/></g></svg>