<svg xmlns="http://www.w3.org/2000/svg" width="128.987" height="122.454" viewBox="0 0 128.987 122.454"><defs><style>.a{fill:#764abc;}</style></defs><path class="a" d="M89.374,85.521a9.22,9.22,0,0,0-.985-18.385h-.328a9.183,9.183,0,0,0-8.864,9.52,9.427,9.427,0,0,0,2.626,6.073c-5.581,11-14.116,19.041-26.919,25.771A44.389,44.389,0,0,1,28.15,113.59c-7.387-.985-13.131-4.268-16.743-9.685-5.252-8.043-5.744-16.743-1.313-25.443A38.638,38.638,0,0,1,21.256,65.33c-.657-2.134-1.642-5.745-2.134-8.371C-4.679,74.195-2.216,97.5,5.006,108.5c5.416,8.208,16.414,13.3,28.561,13.3a40.374,40.374,0,0,0,9.848-1.149c21.01-4.1,36.932-16.579,45.96-35.128Zm28.889-20.354C105.789,50.557,87.4,42.514,66.395,42.514H63.769a9.02,9.02,0,0,0-8.043-4.925H55.4a9.2,9.2,0,0,0,.329,18.385h.328A9.247,9.247,0,0,0,64.1,50.393h2.955a62.56,62.56,0,0,1,34.963,10.67,43.972,43.972,0,0,1,17.4,21.011c2.79,6.894,2.626,13.624-.329,19.37-4.6,8.7-12.31,13.46-22.487,13.46a41.982,41.982,0,0,1-16.086-3.447c-1.805,1.642-5.088,4.268-7.387,5.91A50.675,50.675,0,0,0,94.3,122.454c15.758,0,27.412-8.7,31.844-17.4,4.76-9.521,4.431-25.935-7.879-39.888ZM34.879,88.311a9.22,9.22,0,0,0,9.192,8.864H44.4a9.195,9.195,0,0,0-.329-18.384h-.328a2.8,2.8,0,0,0-1.149.164,60.143,60.143,0,0,1-8.535-36.44,44.033,44.033,0,0,1,9.684-25.443C48.5,11,57.7,8.043,63.933,7.879c17.4-.329,24.785,21.339,25.277,30.039,2.134.492,5.745,1.642,8.207,2.462C95.447,13.789,79.033,0,63.276,0,48.5,0,34.879,10.67,29.462,26.428c-7.55,21.011-2.626,41.2,6.566,57.123a7.376,7.376,0,0,0-1.149,4.76Z"/></svg>