<svg xmlns="http://www.w3.org/2000/svg" width="164.906" height="37.984" viewBox="0 0 164.906 37.984"><defs><style>.a{fill:#3996ff;}</style></defs><g transform="translate(-26.7 -255.793)"><path class="a" d="M200.062,274.957a22.163,22.163,0,0,1-1.291,7.8,16.825,16.825,0,0,1-3.627,5.963,16.174,16.174,0,0,1-5.578,3.82,19.942,19.942,0,0,1-14.371,0,15.921,15.921,0,0,1-5.578-3.82,17.754,17.754,0,0,1-3.627-5.963,24.141,24.141,0,0,1,0-15.58,16.826,16.826,0,0,1,3.627-5.963,16.366,16.366,0,0,1,5.578-3.847A18.4,18.4,0,0,1,182.365,256a18.928,18.928,0,0,1,7.2,1.346,15.636,15.636,0,0,1,5.578,3.847,17.606,17.606,0,0,1,3.627,5.99A22.759,22.759,0,0,1,200.062,274.957Zm-2.8,0a21.506,21.506,0,0,0-1.044-6.98,14.521,14.521,0,0,0-3.05-5.221,13.482,13.482,0,0,0-4.726-3.3,16.687,16.687,0,0,0-12.091,0,13.237,13.237,0,0,0-4.726,3.3,15.115,15.115,0,0,0-3.078,5.248,21.279,21.279,0,0,0-1.1,6.952,21.533,21.533,0,0,0,1.072,6.98,15,15,0,0,0,3.078,5.221,13.062,13.062,0,0,0,4.726,3.27,16.976,16.976,0,0,0,12.091,0,12.612,12.612,0,0,0,4.726-3.27,14.931,14.931,0,0,0,3.05-5.221A20.145,20.145,0,0,0,197.259,274.957Z" transform="translate(-100.076 -0.147)"/><path class="a" d="M337.632,293.965H335.3a2.383,2.383,0,0,1-.769-.137,1.329,1.329,0,0,1-.577-.522L321.8,277.918a4.018,4.018,0,0,0-.44-.522,2.092,2.092,0,0,0-.522-.33,2.9,2.9,0,0,0-.659-.165,5.489,5.489,0,0,0-.962-.055h-4.974v17.119H311.5V256.1h9.7c4.342,0,7.612.852,9.782,2.528s3.27,4.149,3.27,7.419A10.324,10.324,0,0,1,333.51,270a9.9,9.9,0,0,1-2.143,3.16,11.158,11.158,0,0,1-3.407,2.2,15.821,15.821,0,0,1-4.479,1.154,4.63,4.63,0,0,1,1.154,1.044Zm-16.844-19.153a15.637,15.637,0,0,0,4.506-.6,9.871,9.871,0,0,0,3.38-1.731,7.506,7.506,0,0,0,2.116-2.693,8.391,8.391,0,0,0,.714-3.572c0-2.693-.879-4.7-2.638-5.99s-4.314-1.951-7.667-1.951h-6.925v16.542h6.512Z" transform="translate(-206.541 -0.222)"/><path class="a" d="M436.661,291.575a12.225,12.225,0,0,0,4.836-.934,10.285,10.285,0,0,0,3.6-2.611,11.023,11.023,0,0,0,2.253-3.929,14.649,14.649,0,0,0,.769-4.864V256.1h2.693v23.137a16.09,16.09,0,0,1-.989,5.8,13.579,13.579,0,0,1-2.83,4.671,12.894,12.894,0,0,1-4.479,3.16,15.963,15.963,0,0,1-11.816,0,12.789,12.789,0,0,1-4.479-3.16,14.014,14.014,0,0,1-2.83-4.671,17.373,17.373,0,0,1-.989-5.8V256.1h2.72v23.109a14.922,14.922,0,0,0,.769,4.891,11.45,11.45,0,0,0,2.253,3.929,10.358,10.358,0,0,0,3.6,2.638A12.691,12.691,0,0,0,436.661,291.575Z" transform="translate(-286.967 -0.222)"/><path class="a" d="M564.976,260.8a.724.724,0,0,1-.687.44,1.428,1.428,0,0,1-.879-.495,10.835,10.835,0,0,0-1.456-1.044,10.161,10.161,0,0,0-2.281-1.072,11.456,11.456,0,0,0-6.925.055,7.374,7.374,0,0,0-2.555,1.566,6.619,6.619,0,0,0-1.566,2.308,7.288,7.288,0,0,0-.522,2.748,5.369,5.369,0,0,0,.8,3.105,7.063,7.063,0,0,0,2.116,2.116,13.517,13.517,0,0,0,2.968,1.456c1.1.385,2.253.769,3.407,1.154s2.308.8,3.407,1.264a12.337,12.337,0,0,1,2.968,1.731,8.335,8.335,0,0,1,2.116,2.583,7.969,7.969,0,0,1,.8,3.819,11.837,11.837,0,0,1-.8,4.369,10.256,10.256,0,0,1-2.308,3.572,10.886,10.886,0,0,1-3.71,2.391,13.661,13.661,0,0,1-5.029.879,14.326,14.326,0,0,1-6.32-1.292,14.925,14.925,0,0,1-4.616-3.545l.742-1.154a.876.876,0,0,1,.742-.385,1.06,1.06,0,0,1,.6.3l.879.769c.357.3.769.632,1.264.989a9.51,9.51,0,0,0,1.7.989,11.581,11.581,0,0,0,5.084,1.072,10.648,10.648,0,0,0,3.93-.659,9.024,9.024,0,0,0,2.913-1.841,7.735,7.735,0,0,0,1.814-2.748,9.454,9.454,0,0,0,.632-3.38,5.868,5.868,0,0,0-.8-3.242,7.062,7.062,0,0,0-2.116-2.116,13.417,13.417,0,0,0-2.968-1.429c-1.1-.385-2.253-.769-3.407-1.127a35.912,35.912,0,0,1-3.407-1.237,12.343,12.343,0,0,1-2.968-1.731,8.235,8.235,0,0,1-2.116-2.638,8.59,8.59,0,0,1-.8-3.957,9.557,9.557,0,0,1,.714-3.6,9.21,9.21,0,0,1,2.061-3.05,10.491,10.491,0,0,1,3.38-2.116,11.771,11.771,0,0,1,4.561-.824,13.842,13.842,0,0,1,5.166.907,12.291,12.291,0,0,1,4.177,2.8Z" transform="translate(-375.081 0)"/><rect class="a" width="21.049" height="11.431" transform="translate(26.7 255.878)"/><rect class="a" width="11.431" height="37.865" transform="translate(36.317 255.878)"/><circle class="a" cx="5.716" cy="5.716" r="5.716" transform="translate(50.551 255.85)"/></g></svg>