<svg xmlns="http://www.w3.org/2000/svg" width="132.11" height="131.039" viewBox="0 0 132.11 131.039"><defs><style>.a{fill:#0e0f0d;}.b{fill:#e1c5a2;}.c{fill:#a89983;}.d{fill:#fff;}.e{fill:#e0d896;}.f{fill:#d7c184;}.g{fill:#9f8f78;}.h{fill:#6e6a67;}.i{fill:#93232c;}.j{fill:#731b2a;}</style></defs><g transform="translate(0 -0.482)"><path class="a" d="M131.786,46.508c-.062-.481-.136-.963-.235-1.434a15.043,15.043,0,0,0-.342-1.468l-.368-.584a25.453,25.453,0,0,0-4.811-2.885c-1.37-.647-2.763-1.211-4.171-1.731a59.455,59.455,0,0,0-19.546-27.285,51.037,51.037,0,0,0-62.381,0A59.44,59.44,0,0,0,20.384,38.41c-1.405.518-2.8,1.083-4.168,1.727A25.371,25.371,0,0,0,11.4,43.023l-.369.584q-.2.727-.342,1.468c-.1.472-.167.952-.235,1.434q-.2,1.43-.276,2.873a36.114,36.114,0,0,0,.17,5.769,36.6,36.6,0,0,0,1.068,5.686q.4,1.407.929,2.771c.178.459.373.914.588,1.369.107.226.223.447.342.678.263.462.312.552.422.716l.5.459c.324.167.593.293.887.433l.858.385c.159.065.308.129.47.195A71.1,71.1,0,0,0,4.626,81.9L0,89.2l6.493-5.7a106.836,106.836,0,0,1,14.636-10.15l.127,1.044a37.924,37.924,0,0,0-4.3,2.517c-1.407,1.168-1.475,2.981-1.1,6.363a58.662,58.662,0,0,0,1.72,8.184c1.51,5.309,2.617,6.248,3.589,6.468a7.325,7.325,0,0,0,1.641.153A21.119,21.119,0,0,0,28.23,97.3,53.252,53.252,0,0,0,35.3,111.589c-.142.038-.283.084-.425.125-1.771-.821-7.964-3.69-10.045-4.626l-4.35-1.958,2.573,4.017c.187.29,4.628,7.214,8.253,11.881,3.391,4.352,8.035,8.808,16.8,8.808a30.223,30.223,0,0,0,3.3-.194c2.612-.3,4.576-.536,6.069-.727a41.115,41.115,0,0,0,28.964-.06,42.377,42.377,0,0,0,7.238-3.575c3.711-.891,7.77-1.858,9.774-2.422.321-.087.724-.183,1.143-.282,2.794-.642,7.463-1.726,9.952-6.706,2.509-5.025,6.6-12.724,6.643-12.8l1.913-3.592-3.728,1.62c-.2.091-4.922,2.147-7.376,3.433a69.9,69.9,0,0,0,3.059-8.422,23.911,23.911,0,0,0,4.909.289,8.572,8.572,0,0,0,1.986-.254c.974-.247,1.726-.894,3.14-6.373a61.5,61.5,0,0,0,1.576-8.434c.313-3.468.212-5.327-1.2-6.5a31.967,31.967,0,0,0-3.828-2.246,1.479,1.479,0,0,1,.9-.172l.955-3.624c.336-.144.692-.288,1.1-.444.577-.23,1.154-.458,1.732-.707l.852-.385c.3-.139.564-.265.889-.433l.5-.459a4.194,4.194,0,0,0,.231-.379c.316-.568.427-.789.532-1.014.216-.455.407-.911.588-1.369q.53-1.362.927-2.771a36.524,36.524,0,0,0,1.07-5.686,35.739,35.739,0,0,0,.167-5.769q-.07-1.442-.277-2.873Z"/><path class="b" d="M145.686,231.255c-.7.106-1.408.191-2.1.247-.453.022-.928.067-1.361.067l-.161,0c.543-1.211.956-2.153,1.267-2.866.637.713,1.446,1.594,2.358,2.547" transform="translate(-68.54 -110.113)"/><path class="c" d="M102.762,128.961a30.824,30.824,0,0,1-3.467,2.455l-4.027,2.429a34.1,34.1,0,0,0-4.843.971.685.685,0,0,0-.208.09.933.933,0,0,0-.417.527l-4.1,13.513L63.778,153.82l-6.906-4.836-2.008-16.271c3.922-.72,9.165-1.552,15.464-2.258q-1.03,1.23-1.951,2.545l-3.749,5.382,5.46-3.64a89.8,89.8,0,0,1,9.245-5.128q9.294-.7,18.62-.7c1.635,0,3.237.02,4.809.047Zm-34.12,18.331c1.558-.842,3.317-.718,6.072-.712.293.005.6,0,.916-.006.272,0,.543-.005.832-.013,2.839-.028,5.2.24,5.155-4.214s-2.022-8.057-4.859-8.029-5.582,3.676-5.412,8.128a7.059,7.059,0,0,0,.49,2.6,4.477,4.477,0,0,0-3.193,2.247Zm72.114-14.633-1.974,13.835-6.962,4.876-21.892-2.488-4.085-13.45a.92.92,0,0,0-.625-.616,33.331,33.331,0,0,0-5.718-1.064l.526-.035a87.076,87.076,0,0,0,17.02-4.066,232.414,232.414,0,0,1,23.711,3.008Zm-13.987,12.806c-.028-.108-.629-1.9-3.265-1.583a5.632,5.632,0,0,0,.343-2.783c-.348-4.446-2.936-7.979-5.77-7.879s-4.652,3.784-4.495,8.244,2.534,4.419,5.371,4.318c3.81-.072,5.9-1.242,7.816-.317Z" transform="translate(-26.47 -61.966)"/><path class="d" d="M138.742,144.1a1.444,1.444,0,1,1-.441-1.018,1.45,1.45,0,0,1,.441,1.018m-40.635,1.066a1.452,1.452,0,1,1-1.487-1.411,1.45,1.45,0,0,1,1.487,1.411" transform="translate(-45.935 -68.607)"/><path class="b" d="M140.766,146.476a24.72,24.72,0,0,0-2.6-1.538L136.332,157.8a.939.939,0,0,1-.385.621l-2.625,1.836c-.062.311-.111.57-.157.813,2.579.635,5.085-1.225,6.491-2.567a53.847,53.847,0,0,0,1.413-7.695c.3-3.337.035-4.053-.3-4.33m-40.544,48.857A12.536,12.536,0,0,1,95.6,192.4c-.113-.115-.221-.227-.335-.339a27.8,27.8,0,0,1-3.221.463c-.462.021-.9.06-1.383.06l-.712.006-.274-.006a12.464,12.464,0,0,1-6.509,4.454c6.371,1.093,13.381-.58,17.058-1.7m-56.083-31.5c-.057-.194-.117-.386-.172-.581l-3.41-2.387a.926.926,0,0,1-.385-.641l-1.663-13.5a28.435,28.435,0,0,0-3.032,1.784c-.329.272-.58.964-.225,4.182a55.254,55.254,0,0,0,1.988,8.921c1.727,1.321,4.271,2.713,6.9,2.227m50.985-.616a.918.918,0,0,1-.775-.648L90.14,148.7a12.093,12.093,0,0,0-3.72,0l-4.091,13.47a.92.92,0,0,1-.68.627l-1.956.436a3.274,3.274,0,0,1-2.543,2.261c-2.927.893-21.457,6.416-23.57,6.116-1.234-.173-3.581-1.468-5.318-2.515-.7-1.636-1.08-2.749-1.168-3.013v-.005l-.005.005a59.99,59.99,0,0,0,7.577,14.487c5.267-1.552,9.816-3,11.271-3.459,2.962-4.569,7.183-9.1,10.181-9.256q.792-.04,1.586-.041a35.466,35.466,0,0,1,4.172.258,5.217,5.217,0,0,1-1.493-2.7,12.787,12.787,0,0,0,8.7,2.365,15.362,15.362,0,0,0,7.9-3.433l.1-.864-1.956-.222" transform="translate(-16.925 -69.696)"/><path class="b" d="M154.8,182.623a4.1,4.1,0,0,1-2.049-1.113l-.05.443a4.969,4.969,0,0,1-2.137,3.633c4.084-1.237,5.772-1.656,6.929-1.656a3.4,3.4,0,0,1,2.455,1c.1.087.209.179.334.276q4.02,3.166,8.02,6.355c1.278.147,5.336.612,7.89.844,1.47.137,2.8.248,4.107.248.418,0,.814-.014,1.188-.04a65,65,0,0,0,3.69-8.577c-1.51,1.059-4.951,3.378-6.564,3.677-2.1.393-20.855-4.321-23.812-5.088" transform="translate(-72.643 -87.341)"/><path class="e" d="M141.261,49.1q-.055-.665-.138-1.326-.056-.473-.14-.941a26.9,26.9,0,0,0-3.933-2.687,51,51,0,0,0-4.73-2.421c-1.608-.761-3.265-1.449-4.926-2.119q-1.247-.509-2.51-.976c-.838-.328-1.684-.633-2.532-.942,1.779.3,3.543.7,5.294,1.152,1.139.291,2.271.622,3.395.976-8-20.912-27.13-34.528-48.015-34.528S43.012,18.9,35.014,39.811c1.123-.354,2.257-.685,3.391-.976,1.749-.45,3.515-.857,5.3-1.151-.854.308-1.7.614-2.54.942q-1.26.468-2.506.975c-1.663.67-3.315,1.358-4.929,2.119A51.916,51.916,0,0,0,29,44.141a27.009,27.009,0,0,0-3.933,2.687q-.078.469-.14.941-.08.662-.14,1.326-.11,1.338-.114,2.682a39.26,39.26,0,0,0,1.382,10.611q.35,1.275.82,2.513c.158.407.328.811.506,1.2.087.195.178.387.272.571l.115.217c.131.066.269.136.4.2l.795.379c.444.2,1.059.5,1.567.722.028-.026.057-.052.08-.077L29.133,62.49c.314-.084,3.117-.809,7.947-1.731q-.587-.109-1.168-.248a24.7,24.7,0,0,1-3.239-1.033,14.876,14.876,0,0,1-1.524-.738A5.261,5.261,0,0,1,29.8,57.717c5.306,1.734,16.274.95,26.024-.059a267.257,267.257,0,0,1,26.839-1.533A267.143,267.143,0,0,1,109.5,57.658c9.754,1.009,20.722,1.793,26.027.059a5.224,5.224,0,0,1-1.339,1.024,15.389,15.389,0,0,1-1.529.738,24.525,24.525,0,0,1-3.235,1.033c-.164.039-.329.073-.492.11,5.3.982,8.383,1.782,8.71,1.869l-1.411,5.356c.287-.124.574-.248.851-.379l.8-.379c.131-.063.267-.132.4-.2l.107-.217c.1-.184.19-.376.276-.571.179-.388.349-.793.5-1.2q.468-1.237.821-2.513a39.789,39.789,0,0,0,1.386-10.611q0-1.343-.119-2.681" transform="translate(-11.904 -2.316)"/><path class="f" d="M118.631,47.708A37.975,37.975,0,0,1,117.539,58.5a.884.884,0,0,0,0,.467q-2.127-.223-4.258-.393a23.328,23.328,0,0,0,2.017-8.145,37.23,37.23,0,0,0,3.333-2.723M78.019,50.432a23.2,23.2,0,0,0,2.013,8.137q-2.129.168-4.256.393a.894.894,0,0,0,0-.459,38.243,38.243,0,0,1-1.1-10.795,37.5,37.5,0,0,0,3.338,2.723m58.046,11.852a.882.882,0,0,1-.03.119c.156.045.308.091.464.141A35.806,35.806,0,0,1,140.381,64c-2.095-1.361-3.423-5.288-4.164-8.289a37.835,37.835,0,0,1-.152,6.569M72.935,46.953,59.384,50.807A45.2,45.2,0,0,0,58.951,61.5l.069-.041s.441-5.741,1.341-7.945c.464-1.131,3.3-1.853,5.462-2.37s5.623-1.546,6.294,1.5a21.858,21.858,0,0,0,1.531,4.6,42.173,42.173,0,0,1-.713-10.284m47.442,0a41.415,41.415,0,0,1-.82,10.772,21.025,21.025,0,0,0,1.776-5.085c.67-3.043,4.125-2.011,6.292-1.5s5,1.238,5.464,2.369c.764,1.865,1.2,6.262,1.309,7.57a46.266,46.266,0,0,0-.467-10.278l-13.554-3.853M77.912,48.127q.716.575,1.475,1.092a.9.9,0,0,1,.387.721,21.512,21.512,0,0,0,2.078,8.311,1.282,1.282,0,0,1,.068.178c4.907-.334,9.829-.469,14.738-.472s9.831.147,14.735.483a.92.92,0,0,1,.072-.189,21.5,21.5,0,0,0,2.077-8.311.9.9,0,0,1,.39-.721q.729-.5,1.419-1.054l.062-.174a69.171,69.171,0,0,0-2.052-23.737c-.063,3.109-.8,29.75-7.411,29.75H87.7c-7.02,0-7.585-30.037-7.585-30.037l-.362,1.067a68.833,68.833,0,0,0-1.845,23.093M57.278,62.4c-.006-.039-.017-.077-.026-.116a37.323,37.323,0,0,1-.156-6.576c-.741,3-2.073,6.937-4.171,8.3a35.37,35.37,0,0,1,3.889-1.464c.153-.048.311-.094.464-.141" transform="translate(-25.535 -11.331)"/><path class="g" d="M135.18,173.712q-.167.887-.388,1.763a16.059,16.059,0,0,0,5.142.393,15.281,15.281,0,0,0,1.738-4.723c-1.407,1.342-3.912,3.2-6.491,2.567M81.253,210.547a32.977,32.977,0,0,0,10.883,1.172,43.5,43.5,0,0,0,13.341-3.06,12.369,12.369,0,0,1-3.239-.68c-3.678,1.121-10.687,2.794-17.058,1.7a17.953,17.953,0,0,1-3.138.744c-.266.031-.486.067-.789.124M46.392,177.289c-.083-.268-.159-.537-.238-.806-2.628.486-5.172-.906-6.9-2.226a11.962,11.962,0,0,0,1.544,3.62,16.86,16.86,0,0,0,5.591-.588m3.886,4.454c1.736,1.047,4.083,2.343,5.318,2.515,2.113.3,20.643-5.223,23.57-6.116a3.275,3.275,0,0,0,2.543-2.261l-26.733,5.953a1.229,1.229,0,0,1-.2.02h0a.926.926,0,0,1-.526-.166l-1.041-.727-3.123-2.187v0l-1.26-.88c.022.071.048.142.071.213.071.208.142.418.217.622v.005c.088.264.472,1.377,1.168,3.012m82-5.134c.171-.631.338-1.271.491-1.916l-.928.652-2.5,1.749-2.7,1.894a.947.947,0,0,1-.466.166.935.935,0,0,1-.165,0L99.1,176.088l-.046.42a4.093,4.093,0,0,0,2.048,1.113c2.958.767,21.715,5.481,23.812,5.087,1.613-.3,5.055-2.617,6.563-3.676.013-.037.026-.072.038-.109q.4-1.153.771-2.317" transform="translate(-18.941 -82.341)"/><path class="h" d="M103.76,111.62c-.212.274-.444.574-.693.888a58.211,58.211,0,0,1-5.147,5.7q-3.766-.118-7.535-.118c-4.268,0-8.36.112-12.246.3a97.607,97.607,0,0,1,19.231-5.837q3.173-.6,6.389-.93m-32.131,2.458a48.7,48.7,0,0,0-6.321,5.265q-7.149.713-14.245,1.855a108.121,108.121,0,0,1,20.565-7.12m67.152,11.347-2.238,15.638-10.71,7.5L97.9,145.39l-4.2-13.847a.92.92,0,0,0-.732-.642,14.977,14.977,0,0,0-5.433,0,.932.932,0,0,0-.73.642l-4.1,13.51-27.773,6.179-11.007-7.71-2.172-17.551q.719-.4,1.439-.8,1.024-.22,2.3-.463l2.044,16.561a.9.9,0,0,0,.386.634l7.574,5.306a.932.932,0,0,0,.522.165,1.089,1.089,0,0,0,.2-.023l22.834-5.08a1.128,1.128,0,0,0,.228-.083.915.915,0,0,0,.448-.546l4.115-13.538a28.571,28.571,0,0,1,6.412-.944,28.618,28.618,0,0,1,6.409.944l4.112,13.538a.921.921,0,0,0,.774.647l22.838,2.595a.915.915,0,0,0,.626-.162l7.577-5.3a.942.942,0,0,0,.379-.625l2.022-14.152c1.518.291,2.788.557,3.787.773m2.819-9.809-1.967,7.458a215.028,215.028,0,0,0-24.87-3.8,60.568,60.568,0,0,0,11.579-6.4c7.152,1.01,12.4,2.095,15.258,2.74m-102.424,0,.547,2.065q2-1.593,4.112-3.034c-1.926.37-3.5.706-4.658.969" transform="translate(-18.901 -53.621)"/><path class="i" d="M108.295,71.752q-4.515-.256-9.03-.439-.5.745-1.038,1.471a57.444,57.444,0,0,1-8.872,9.577c3.068-.972,15.238-5.055,21.4-10.458q-1.231-.08-2.462-.152m-22.056-.795.012,0c-1.527-.02-3.054-.036-4.579-.042h0c-2.246.006-4.485.035-6.731.073L70.8,72.948a.246.246,0,0,0-.061.035,48.632,48.632,0,0,0-11.175,7.938c.448-.236.922-.48,1.411-.728a71.264,71.264,0,0,1,21.87-9.269c1.132.007,2.264.013,3.395.033m-25.442.5q-2.875.133-5.75.295-3.332.186-6.648.441c-1.1.085-2.208.179-3.3.294-.318.031-.628.065-.939.105C41.267,74.32,30.2,81.266,22.6,90.356c.131-.158.266-.314.4-.469A86.84,86.84,0,0,1,60.8,71.457m63.668,49.375-.254.13a12.1,12.1,0,0,1-5.65,1.1c-1.423,0-2.818-.119-4.364-.259-3.088-.283-8.315-.9-8.368-.907l-.4-.042-.316-.255c-.048-.032-4.625-3.682-8.325-6.591-.151-.122-.287-.238-.411-.336-.39-.334-.39-.334-.623-.334-1.188,0-4.638,1.071-12.194,3.412l-.464.149-.459-.174a35.239,35.239,0,0,0-10.951-1.851c-.486,0-.972.012-1.444.035-.595.031-3.934,1.617-8.208,8.374l-.274.436-.492.157c-.071.023-7.423,2.4-15.221,4.626l-.5.142-.481-.222c-.05-.017-3.1-1.434-6-2.764.214.1.429.2.643.3,2.865,2.473,8.351,7.229,8.96,7.888.084.095.2.211.342.342q-.212-.241-.413-.491l-.005-.005h0a16.382,16.382,0,0,0,4.216,2.962,9.241,9.241,0,0,0,2.4.777,7.577,7.577,0,0,0,1.233.1c.424,0,.857-.012,1.29-.034,1.714-.088,3.444-.219,5.17-.387s3.448-.328,5.17-.537c1.72-.185,3.439-.4,5.144-.666.854-.124,1.7-.265,2.532-.449a6.816,6.816,0,0,0,1.154-.347,5.035,5.035,0,0,0,.965-.693c.642-.552,1.261-1.164,1.874-1.775s1.219-1.24,1.813-1.876c1.01-1.057,1.875-2.18,2.853-3.269.125-.136.253-.279.383-.419,0,0,0,0,0,0l.011.013c.2.146.407.295.607.451,1.176.877,2.391,1.827,3.563,2.647a54.3,54.3,0,0,0,4.622,3.01,7.181,7.181,0,0,0,1.193.554.638.638,0,0,0,.132.033.556.556,0,0,0,.145.034c.077.011.18.017.279.023.213,0,.434-.007.655-.017.892-.062,1.8-.192,2.7-.334,1.809-.282,3.623-.608,5.426-.969q2.711-.519,5.406-1.115,2.7-.574,5.378-1.251a14.855,14.855,0,0,0,2.562-.838,9.923,9.923,0,0,0,2.246-1.482,17.46,17.46,0,0,0,3.535-4.256l0,.005a19.166,19.166,0,0,0,1.217-2.76M90.729,35.791h3.182V29.327H70.643v6.464h3.183V32.508h6.579V52.472H77.7v3.705h9.16V52.472H84.148V32.508h6.581v3.283" transform="translate(-10.905 -13.917)"/><path class="j" d="M114.8,110.969a.037.037,0,0,0-.019-.006q-1.976-.149-3.954-.276l-.076,0c-6.165,5.4-18.334,9.486-21.4,10.458l-.178.151a71.446,71.446,0,0,0,15.973-4.832,53.647,53.647,0,0,0,8.993-5.015c.225-.156.444-.32.662-.476M82.843,109.7a71.266,71.266,0,0,0-21.871,9.268q3.877-1.972,7.891-3.654.484-.2.969-.4l.3-.124c.269-.109.54-.216.813-.325l.455-.178q.368-.144.743-.287c.187-.071.374-.142.563-.212q.343-.132.691-.259c.217-.08.437-.159.655-.238s.429-.155.646-.233l.746-.26.593-.2q.439-.147.884-.294l.488-.161c.464-.15.933-.3,1.4-.444q1.545-.474,3.152-.908,2.121-.579,4.268-1.055c-1.131-.019-2.264-.026-3.4-.033m-22.047.534A86.84,86.84,0,0,0,23,128.666c-.134.156-.269.311-.4.469a123.758,123.758,0,0,1,34.652-16.863c.49-.145.985-.286,1.481-.426q3.855-1.08,7.788-1.843-2.861.1-5.725.234M127.2,158.286q-.219.1-.436.2l-.235.109-.188.09-.288.137c-.039.02-.081.039-.122.06-.109.052-.217.1-.322.154l-.071.035-.342.168-.036.017c-.247.122-.481.24-.7.352a19.164,19.164,0,0,1-1.221,2.764l.005-.007a.028.028,0,0,0-.007.01,17.518,17.518,0,0,1-3.528,4.244,9.953,9.953,0,0,1-2.246,1.482,14.964,14.964,0,0,1-2.563.838c-1.78.448-3.575.869-5.379,1.251q-2.694.6-5.405,1.115c-1.8.363-3.617.688-5.427.969-.905.142-1.81.272-2.7.333q-.326.019-.654.017-.141-.006-.28-.023a7.568,7.568,0,0,1-.276-.067,7.119,7.119,0,0,1-1.193-.554,54.656,54.656,0,0,1-4.623-3.01c-1.17-.82-2.387-1.77-3.563-2.647l-.1.145.007.008c.073.066.147.127.22.191l-.005,0c-.054-.04-.105-.08-.155-.116l.986,1.176s.04.049.113.134c.5.591,2.608,3.033,5.108,5.513a9.4,9.4,0,0,0,6.832,2.839,12.158,12.158,0,0,0,2.8-.345c.883-.217,1.844-.446,2.828-.684,2.919-.695,6.153-1.469,8.3-2.027l.416-.109q.456-.12.825-.222.629-.174,1.268-.313c2.6-.6,6.164-1.43,8.049-5.209q.848-1.691,1.713-3.372,1.417-2.752,2.856-5.493h0l.187-.358-.444.206m-42.633,8.153-.169-.16c-.978,1.089-1.844,2.212-2.853,3.27q-.891.953-1.813,1.875c-.613.611-1.233,1.225-1.874,1.775a5,5,0,0,1-.965.693,6.756,6.756,0,0,1-1.154.347c-.828.184-1.678.325-2.532.45-1.7.264-3.424.482-5.144.666-1.722.209-3.447.382-5.17.537s-3.456.3-5.17.388c-.433.02-.866.033-1.29.033a7.4,7.4,0,0,1-1.233-.1,9.227,9.227,0,0,1-2.4-.777,16.413,16.413,0,0,1-4.216-2.962l0,0c.171.21.359.407.538.608l-.125-.117c-.14-.131-.257-.247-.342-.342-.61-.66-6.1-5.415-8.96-7.888-.214-.1-.43-.2-.643-.3q.812,1.2,1.641,2.4,1.266,1.829,2.587,3.618.569.769,1.155,1.525c3.114,4.007,7.034,7.71,14.556,7.71a26.608,26.608,0,0,0,2.973-.174c.24-.026.473-.053.7-.08l.647-.074c6.541-.752,8.335-1.073,9.331-1.245.258-.044.478-.083.716-.118l.288-.041a15.786,15.786,0,0,0,4.41-1.339,7.367,7.367,0,0,0,3.673-3.419c1.81-4.05,2.178-5.017,2.193-5.054l.635-1.705" transform="translate(-10.905 -52.696)"/><path class="a" d="M115.595,85.8a1.451,1.451,0,1,0-1.475-1.422,1.452,1.452,0,0,0,1.475,1.422Zm8.912,6.528c-1.914-.925-4.006.246-7.816.317-2.837.1-5.215.132-5.371-4.318s1.658-8.146,4.494-8.244,5.423,3.434,5.77,7.879a5.615,5.615,0,0,1-.343,2.783C123.878,90.427,124.479,92.217,124.507,92.325ZM74.974,86.873a1.449,1.449,0,1,0-1.488-1.409,1.45,1.45,0,0,0,1.488,1.409Zm4.38,2.332c.042,4.454-2.316,4.186-5.155,4.214-.288.009-.56.013-.832.013-.316.009-.622.012-.916.007-2.755-.007-4.514-.129-6.073.712A4.484,4.484,0,0,1,69.572,91.9a7.046,7.046,0,0,1-.489-2.6c-.17-4.452,2.576-8.1,5.412-8.128S79.312,84.751,79.355,89.205Zm53.718-30.627q-.031.411-.078.821-1.686-.455-3.387-.849a112.332,112.332,0,0,0-11.351-1.868c-.131-.017-.265-.026-.4-.042a1.385,1.385,0,0,0,.066-.17c.114-.416.213-.833.308-1.25a41.415,41.415,0,0,0,.82-10.772L132.6,48.3a46.375,46.375,0,0,1,.468,10.277ZM116.214,56a.873.873,0,0,0,0,.467q-2.127-.223-4.259-.393a23.328,23.328,0,0,0,2.017-8.145,37.305,37.305,0,0,0,3.333-2.723A37.975,37.975,0,0,1,116.213,56Zm-41.763.459a.894.894,0,0,0,0-.459,38.245,38.245,0,0,1-1.1-10.795,37.263,37.263,0,0,0,3.338,2.723,23.2,23.2,0,0,0,2.013,8.137q-2.129.168-4.256.393Zm-2.047.224c-1.9.232-3.8.471-5.7.786s-3.778.667-5.651,1.083c-1.136.264-2.262.543-3.388.848-.01-.089-.024-.226-.04-.4A45.2,45.2,0,0,1,58.059,48.3l13.55-3.855a42.146,42.146,0,0,0,.713,10.283c.121.581.259,1.161.417,1.739a1.159,1.159,0,0,0,.065.165c-.136.017-.267.029-.4.046Zm67.933,5.472c-.115-.055-.229-.112-.338-.166-.168-.081-.353-.173-.566-.276a3.512,3.512,0,0,1-.378-.212,35.826,35.826,0,0,0-3.881-1.459c-.155-.051-.308-.1-.464-.142a.974.974,0,0,0,.03-.119,37.868,37.868,0,0,0,.153-6.569,51.674,51.674,0,0,0-.623-5.749.892.892,0,0,0-.632-.71L131.7,46.2c-.416-14.949-6.571-21.974-6.763-22.192,5.5,8.85,5.45,19.345,5.354,21.79l-11.978-3.4a.059.059,0,0,1-.028-.005,1.132,1.132,0,0,0-.154-.023l-.044,0a.743.743,0,0,0-.2.017c-.009,0-.02.009-.032.009a.663.663,0,0,0-.155.053.448.448,0,0,1-.053.026c-.04.027-.08.05-.119.079a.205.205,0,0,0-.029.02c-.012.008-.016.017-.023.023s-.025.02-.034.028-.334.328-.835.8c.035-1.12.044-2.835-.083-4.928l-.039-.6c-.377-5.26-1.62-12.647-5.335-19.115.032.093.4,1.166.875,2.974a69.171,69.171,0,0,1,2.052,23.737c-.005.046-.008.091-.013.137-.016.013-.033.025-.049.037q-.69.554-1.42,1.054a.9.9,0,0,0-.391.721,21.488,21.488,0,0,1-2.075,8.311.924.924,0,0,0-.073.189c-4.9-.336-9.823-.48-14.735-.483s-9.831.138-14.738.472a1.331,1.331,0,0,0-.068-.179,21.509,21.509,0,0,1-2.078-8.311.9.9,0,0,0-.387-.721Q77.3,46.2,76.585,45.62A68.838,68.838,0,0,1,78.43,22.527c.568-2.274,1.037-3.649,1.074-3.754-5.391,9.381-5.578,20.7-5.458,24.647-.51-.473-.826-.788-.834-.8s-.026-.017-.037-.028l-.019-.023a.19.19,0,0,0-.032-.019,1.118,1.118,0,0,0-.119-.073.426.426,0,0,0-.057-.032A.434.434,0,0,0,72.8,42.4c-.014-.005-.025-.014-.035-.014a.8.8,0,0,0-.2-.017l-.051,0a1.159,1.159,0,0,0-.146.023.059.059,0,0,1-.029.005L60.369,45.8c-.1-2.446-.148-12.941,5.35-21.79-.19.219-6.344,7.244-6.763,22.194l-1.923.546a.884.884,0,0,0-.639.711A52.088,52.088,0,0,0,55.77,53.2a37.442,37.442,0,0,0,.156,6.576c.009.039.02.078.026.116-.153.048-.311.093-.464.141A35.466,35.466,0,0,0,51.6,61.5a3.457,3.457,0,0,1-.354.2l-.02.011-.567.276-.294.144c-.062.036-.126.067-.187.1a21.425,21.425,0,0,1,2.726-.829q1.38-.343,2.777-.609c1.865-.347,3.733-.648,5.614-.877q2.813-.37,5.645-.608c1.887-.161,3.771-.32,5.662-.429,7.563-.448,15.145-.589,22.73-.592s15.169.124,22.73.589c1.892.109,3.775.267,5.665.427s3.766.366,5.641.613c1.881.226,3.754.526,5.615.875q1.4.263,2.773.61a21.318,21.318,0,0,1,2.73.83C140.436,62.205,140.385,62.179,140.337,62.151Z" transform="translate(-24.209 -8.825)"/><path class="a" d="M126.708,30.277V50.241h2.709v3.705h-9.16V50.241h2.709V30.277h-6.58V33.56H113.2V27.1h23.267V33.56H133.29V30.277h-6.582Zm12.159,5.673V24.7H110.815V35.95h7.966V32.667h1.79V47.846h-2.7v8.486H131.81V47.845H129.1V32.666h1.8V35.95h7.972Z" transform="translate(-53.465 -11.686)"/></g></svg>