<svg xmlns="http://www.w3.org/2000/svg" width="131.042" height="129.4" viewBox="0 0 131.042 129.4"><defs><style>.a{fill:#5e464d;}.b{fill:#fff;}.c{fill:#3fe0c5;}</style></defs><g transform="translate(0.038)"><g transform="translate(-0.038 0)"><ellipse class="a" cx="63.952" cy="64.7" rx="63.952" ry="64.7" transform="translate(1.424)"/><path class="b" d="M45.227,130.41c2.616.893,11.4,3.75,11.776.956.2-1.533-4.434-3.1-10.712-6.429a100.718,100.718,0,0,1-24.229-17.9A55.629,55.629,0,0,1,5.389,68.358c-.532-19.573,7.12-35.4,19.706-45.608a64.535,64.535,0,0,0-25.11,49.5A60.344,60.344,0,0,0,11.008,109.2a41.959,41.959,0,0,0,8.057,7.905c7.12,5.391,17.54,10.376,26.161,13.3" transform="translate(0.038 -8.339)"/><path class="b" d="M147.832,51.795c-3.965-18.649-16.292-31.7-32.781-40.927,12.606,8.976,30.355,28.062,19.9,44.886C126.08,69.24,104.511,66.6,92.723,60.188,78.711,52.6,61.158,35.5,78.458,18.78c11.212-10.819,46.875,1.311,40.6,17.483-3.661,9.407-17.907,7.316-24.324,2.717-4.713-3.4-8.672-9.229-6.581-15.253C88.821,21.795,88.726,18.8,86,21a10.775,10.775,0,0,0-3.414,6.879C79.6,48.97,117.167,65.319,128.316,44.916c5.783-10.591-3.592-25.971-15.393-32.268C104.055,7.9,94.826,4.559,83.512,5.37,65.428,6.637,50.244,17.975,48.337,36.459c-1.9,18.37,10.382,34.9,24.844,44.791,15.2,10.388,35.638,17.236,54.337,11.041,16.767-5.555,23.691-24.793,20.315-40.5" transform="translate(-17.623 -1.924)"/><path class="c" d="M130.684,39.321c1.8-12.086-9.128-20.384-19.219-24.153-11.9-4.434-27.612-2.5-36.271,7.354-6.334,7.234-5.929,17.736-2.66,26.237,4.941,12.84,16.1,22.12,29.081,26.13,9.229,2.851,20.384,4.092,29.734,1.083,13.638-4.39,18.079-18.611,15.26-31.641a37.423,37.423,0,0,0-2.762-8.159c-1.723-3.617-7.006-10.94.279-2.033a32.568,32.568,0,0,1,2.1,3.11,34.687,34.687,0,0,1,3.541,7.861c3.965,12.162.855,26.351-10.135,33.693-8.431,5.619-19.149,6.29-28.929,4.884A54.665,54.665,0,0,1,76.645,65.26c-7.848-9.293-13.2-22.639-9.977-34.839,2.363-8.925,9.609-15.589,18.288-18.37a40.811,40.811,0,0,1,32.939,3.87c4.947,2.882,9.5,6.873,12,12.105a17.958,17.958,0,0,1,1.805,7.557,15.666,15.666,0,0,1-.247,3.167c-.07.38-.874,1.451-.76.57" transform="translate(-24.064 -3.734)"/></g></g></svg>