<svg xmlns="http://www.w3.org/2000/svg" width="116" height="116" viewBox="0 0 116 116"><defs><style>.a{fill:#007acc;}</style></defs><path class="a" d="M2,59.41v58H118V1.41H2Zm93.477-4.64a14.44,14.44,0,0,1,7.257,4.176,19.1,19.1,0,0,1,2.784,3.712c0,.148-5.011,3.536-8.064,5.429-.111.074-.557-.408-1.049-1.141a6.58,6.58,0,0,0-5.447-3.276c-3.517-.241-5.781,1.605-5.763,4.64a4.25,4.25,0,0,0,.5,2.172c.77,1.605,2.209,2.561,6.719,4.51,8.306,3.573,11.86,5.93,14.068,9.28,2.468,3.712,3.016,9.707,1.346,14.143-1.856,4.826-6.4,8.1-12.834,9.187a35.56,35.56,0,0,1-8.835-.093,21.344,21.344,0,0,1-11.776-6.078c-1.067-1.179-3.146-4.25-3.016-4.473a8.666,8.666,0,0,1,1.067-.677L76.7,93.83l3.332-1.93.7,1.03a15.572,15.572,0,0,0,4.4,4.213c3.712,1.949,8.779,1.68,11.284-.575a5.039,5.039,0,0,0,.64-6.422c-.928-1.29-2.784-2.376-7.972-4.64-5.986-2.58-8.565-4.176-10.923-6.719a15.294,15.294,0,0,1-3.183-5.8,23.2,23.2,0,0,1-.2-7.424c1.234-5.781,5.568-9.818,11.9-11.015a29.38,29.38,0,0,1,8.807.241ZM68.25,59.633v4.751H53.188v42.9H42.507V64.375h-15.1v-4.64a45.647,45.647,0,0,1,.13-4.789c.056-.074,9.28-.111,20.416-.093h20.24Z" transform="translate(-2 -1.41)"/></svg>