<svg xmlns="http://www.w3.org/2000/svg" width="186" height="42.098" viewBox="0 0 186 42.098"><defs><style>.a{fill:#fff;}</style></defs><path class="a" d="M-38.217,217.44c-7.254,0-12.493,4.743-12.493,11.842s5.89,11.842,13.144,11.842a13.652,13.652,0,0,0,10.664-4.65l-5.022-2.914a7.512,7.512,0,0,1-5.611,2.294,7.008,7.008,0,0,1-6.82-4.278H-25.91a11.079,11.079,0,0,0,.217-2.294c-.031-7.13-5.239-11.842-12.524-11.842Zm-6.231,9.517a6.105,6.105,0,0,1,6.231-4.278,6.105,6.105,0,0,1,6.231,4.278Zm77.066-9.517c-7.254,0-12.493,4.743-12.493,11.842s5.89,11.842,13.144,11.842a13.652,13.652,0,0,0,10.664-4.65l-5.022-2.914a7.512,7.512,0,0,1-5.611,2.294,7.008,7.008,0,0,1-6.82-4.278H44.925a11.079,11.079,0,0,0,.217-2.294c0-7.13-5.239-11.842-12.524-11.842Zm-6.2,9.517a6.105,6.105,0,0,1,6.231-4.278,6.105,6.105,0,0,1,6.231,4.278ZM.75,229.282a6.183,6.183,0,0,0,6.572,6.572,6.252,6.252,0,0,0,5.8-3.224l5.053,2.914c-2.077,3.472-6.014,5.58-10.85,5.58-7.285,0-12.493-4.743-12.493-11.842S.068,217.44,7.322,217.44c4.836,0,8.742,2.108,10.85,5.58l-5.053,2.914a6.165,6.165,0,0,0-5.8-3.224C3.323,222.679.75,225.314.75,229.282ZM55,210.186v30.256H49.079V210.186ZM-106.7,206.9l24.3,42.1H-131Zm60.791,3.286-18.228,31.589-18.228-31.589h6.851L-64.1,229.933l11.408-19.747Zm38.75,7.9v6.386a7.693,7.693,0,0,0-2.108-.31,6.282,6.282,0,0,0-6.572,6.572v9.734h-5.921V218.091h5.921v6.045C-15.835,220.788-11.96,218.091-7.155,218.091Z" transform="translate(131 -206.9)"/></svg>