<svg xmlns="http://www.w3.org/2000/svg" width="142.525" height="133.305" viewBox="0 0 142.525 133.305"><defs><style>.a{fill:#f16822;}.b{fill:#808285;}.c{fill:#bcbec0;}</style></defs><g transform="translate(-1246.666 -5198.377)"><g transform="translate(1246.666 5198.377)"><path class="a" d="M1743.889,481.266a36.553,36.553,0,0,0-12.939-4.731c-.969-2.118-3.344-4.607-8.17-7.362-15.836-9.044-31.663-.1-31.663-.1L1670,481.266l10.554,6.089,21.109-12.188s5.282-3.049,10.554,0,0,6.1,0,6.1l-21.109,12.188h0l10.555,6.089,21.127-12.2c.313-.181,5.425-2.945,10.535.009,5.282,3.049,0,6.089,0,6.089l-21.109,12.188,10.554,6.1,26.39-15.238S1759.716,490.4,1743.889,481.266Z" transform="translate(-1622.473 -456.889)"/><g transform="translate(0 0)"><path class="b" d="M1217.227,402.776s-5.282,3.049-5.282,9.139v30.437s0,6.1-5.282,3.049-5.282-9.139-5.282-9.139V405.826a10.623,10.623,0,0,1,.057-1.111,11.4,11.4,0,0,1,5.215-8.037h0l-10.554-6.089a.029.029,0,0,0-.019.009c-.313.181-5.263,3.23-5.263,9.129h0v30.437s0,6.1-5.282,3.049-5.282-9.139-5.282-9.139V393.637c0-6.089,5.282-9.139,5.282-9.139l-10.554-6.1s-5.282,3.049-5.282,9.139v30.437s0,18.287,15.836,27.426c4.854,2.8,8.217,3.021,10.554,1.985a30.045,30.045,0,0,0,10.554,10.2c15.836,9.139,15.836-9.139,15.836-9.139V418.014c0-6.1,5.282-9.139,5.282-9.139Z" transform="translate(-1169.7 -378.4)"/><path class="c" d="M1836.7,924.4l10.554,6.089v12.188l-10.554-6.089Z" transform="translate(-1773.337 -872.531)"/><path class="c" d="M1862.9,891.6s-5.282,3.049-5.282,9.139v30.437s0,6.1-5.282,3.049-5.282-9.139-5.282-9.139l-10.554-6.1s0,18.287,15.836,27.426,15.836-9.139,15.836-9.139V906.838c0-6.089,5.282-9.139,5.282-9.139Z" transform="translate(-1773.156 -842.847)"/><path class="c" d="M2296.936,1075.235l21.109,12.188v-12.188l-21.109-12.188s-15.836-8.911-15.836,9.139,15.836,27.426,15.836,27.426h0l5.282,3.049s5.281,3.05,5.281,9.139-5.281,3.049-5.281,3.049L2281.1,1102.66v12.188l21.108,12.188s15.836,9.139,15.836-9.139-10.554-24.376-10.554-24.376l-10.554-6.089s-5.282-3.049-5.282-9.139C2291.655,1072.185,2296.936,1075.235,2296.936,1075.235Z" transform="translate(-2175.52 -996.016)"/></g></g></g></svg>