<svg xmlns="http://www.w3.org/2000/svg" width="113.58" height="126" viewBox="0 0 113.58 126"><defs><style>.a{fill:#8ed6fb;}.b{fill:#1c78c0;}</style></defs><g transform="translate(-7.21 -1)"><path class="a" d="M117.29,98.1,66.24,127V104.49L98,87Zm3.5-3.16V34.55l-18.68,10.8V84.16l18.67,10.77ZM10.71,98.1l51,28.88V104.49L29.94,87Zm-3.5-3.16V34.55l18.68,10.8V84.16ZM9.4,30.64,61.76,1V22.76L28.21,41.21l-.27.15Zm109.18,0L66.24,1V22.76L99.79,41.2l.27.15L118.6,30.64Z"/><path class="b" d="M61.76,99.37,30.37,82.1V47.92L61.76,66Zm4.48,0L97.63,82.12V47.92L66.24,66ZM32.5,44,64,26.66,95.5,44,64,62.16Z"/></g></svg>